<?xml version="1.0" encoding="utf-8" standalone="no"?>
<!DOCTYPE svg PUBLIC "-//W3C//DTD SVG 1.1//EN"
  "http://www.w3.org/Graphics/SVG/1.1/DTD/svg11.dtd">
<svg xmlns:xlink="http://www.w3.org/1999/xlink" width="712.8pt" height="717.297735pt" viewBox="0 0 712.8 717.297735" xmlns="http://www.w3.org/2000/svg" version="1.1">
 <metadata>
  <rdf:RDF xmlns:dc="http://purl.org/dc/elements/1.1/" xmlns:cc="http://creativecommons.org/ns#" xmlns:rdf="http://www.w3.org/1999/02/22-rdf-syntax-ns#">
   <cc:Work>
    <dc:type rdf:resource="http://purl.org/dc/dcmitype/StillImage"/>
    <dc:date>2025-12-11T01:29:13.405963</dc:date>
    <dc:format>image/svg+xml</dc:format>
    <dc:creator>
     <cc:Agent>
      <dc:title>Matplotlib v3.10.7, https://matplotlib.org/</dc:title>
     </cc:Agent>
    </dc:creator>
   </cc:Work>
  </rdf:RDF>
 </metadata>
 <defs>
  <style type="text/css">*{stroke-linejoin: round; stroke-linecap: butt}</style>
 </defs>
 <g id="figure_1">
  <g id="patch_1">
   <path d="M 0 717.297735 
L 712.8 717.297735 
L 712.8 0 
L 0 0 
L 0 717.297735 
z
" style="fill: none"/>
  </g>
  <g id="axes_1">
   <g id="patch_2">
    <path d="M 7.2 682.186667 
L 705.6 682.186667 
L 705.6 7.2 
L 7.2 7.2 
L 7.2 682.186667 
z
" style="fill: none"/>
   </g>
   <g id="patch_3">
    <path d="M 114.646154 1007.180247 
C 257.073968 1007.180247 393.814001 954.466906 494.525674 860.73653 
C 595.237347 767.006155 651.876923 639.744892 651.876923 507.190123 
L 114.646154 507.190123 
z
" clip-path="url(#pdfeeb8e655)" style="fill: #2ca02c; stroke: #2ca02c; stroke-linejoin: miter"/>
   </g>
   <g id="patch_4">
    <path d="M 114.646154 647.384119 
C 154.581991 647.384119 192.923012 632.60364 221.161914 606.322249 
C 249.400815 580.040858 265.282186 544.357623 265.282186 507.190123 
L 114.646154 507.190123 
z
" clip-path="url(#pdfeeb8e655)" style="fill: #ff7f0e; stroke: #ff7f0e; stroke-linejoin: miter"/>
   </g>
   <g id="patch_5">
    <path d="M 114.646154 549.075034 
C 126.577542 549.075034 138.032456 544.65916 146.469222 536.807228 
C 154.905987 528.955296 159.650768 518.294432 159.650768 507.190123 
L 114.646154 507.190123 
z
" clip-path="url(#pdfeeb8e655)" style="fill: #1f77b4; stroke: #1f77b4; stroke-linejoin: miter"/>
   </g>
   <g id="matplotlib.axis_1"/>
   <g id="matplotlib.axis_2"/>
   <g id="line2d_1">
    <path d="M 114.646154 57.199012 
L 120.072727 79.361467 
L 125.499301 100.432402 
L 130.925874 120.465575 
L 136.352448 139.512097 
L 141.779021 157.620561 
L 147.205594 174.837167 
L 152.632168 191.20584 
L 158.058741 206.768342 
L 163.485315 221.564377 
L 168.911888 235.631694 
L 174.338462 249.006184 
L 179.765035 261.721969 
L 185.191608 273.81149 
L 190.618182 285.305591 
L 196.044755 296.233598 
L 201.471329 306.623391 
L 206.897902 316.501478 
L 212.324476 325.89306 
L 217.751049 334.822099 
L 223.177622 343.311374 
L 228.604196 351.382546 
L 234.030769 359.056205 
L 239.457343 366.35193 
L 244.883916 373.288334 
L 250.31049 379.883114 
L 255.737063 386.153095 
L 261.163636 392.114275 
L 266.59021 397.781861 
L 272.016783 403.170313 
L 277.443357 408.29338 
L 282.86993 413.164131 
L 288.296503 417.794993 
L 293.723077 422.197781 
L 299.14965 426.383728 
L 304.576224 430.363514 
L 310.002797 434.147291 
L 315.429371 437.744715 
L 320.855944 441.164962 
L 326.282517 444.416758 
L 331.709091 447.508401 
L 337.135664 450.447778 
L 342.562238 453.242388 
L 347.988811 455.899361 
L 353.415385 458.425476 
L 358.841958 460.827178 
L 364.268531 463.110593 
L 369.695105 465.281549 
L 375.121678 467.345583 
L 380.548252 469.307961 
L 385.974825 471.173691 
L 391.401399 472.947531 
L 396.827972 474.634009 
L 402.254545 476.237426 
L 407.681119 477.761873 
L 413.107692 479.21124 
L 418.534266 480.589225 
L 423.960839 481.899342 
L 429.387413 483.144935 
L 434.813986 484.329182 
L 440.240559 485.455103 
L 445.667133 486.525572 
L 451.093706 487.543319 
L 456.52028 488.510941 
L 461.946853 489.430907 
L 467.373427 490.305564 
L 472.8 491.137144 
L 478.226573 491.927767 
L 483.653147 492.679451 
L 489.07972 493.394114 
L 494.506294 494.07358 
L 499.932867 494.719581 
L 505.359441 495.333766 
L 510.786014 495.917702 
L 516.212587 496.472879 
L 521.639161 497.000712 
L 527.065734 497.50255 
L 532.492308 497.979671 
L 537.918881 498.433294 
L 543.345455 498.864576 
L 548.772028 499.274616 
L 554.198601 499.664462 
L 559.625175 500.035107 
L 565.051748 500.387498 
L 570.478322 500.722533 
L 575.904895 501.041068 
L 581.331469 501.343914 
L 586.758042 501.631845 
L 592.184615 501.905595 
L 597.611189 502.165863 
L 603.037762 502.413312 
L 608.464336 502.648574 
L 613.890909 502.872249 
L 619.317483 503.084908 
L 624.744056 503.287094 
L 630.170629 503.479321 
L 635.597203 503.662082 
L 641.023776 503.835841 
L 646.45035 504.001042 
L 651.876923 504.158107 
" clip-path="url(#pdfeeb8e655)" style="fill: none; stroke: #1f77b4; stroke-width: 2; stroke-linecap: square"/>
   </g>
   <g id="line2d_2">
    <path d="M 114.646154 157.197037 
L 120.072727 164.196663 
L 125.499301 171.056301 
L 130.925874 177.778751 
L 136.352448 184.366757 
L 141.779021 190.823007 
L 147.205594 197.150136 
L 152.632168 203.350727 
L 158.058741 209.427311 
L 163.485315 215.382366 
L 168.911888 221.218325 
L 174.338462 226.937568 
L 179.765035 232.542431 
L 185.191608 238.0352 
L 190.618182 243.418117 
L 196.044755 248.693379 
L 201.471329 253.86314 
L 206.897902 258.929509 
L 212.324476 263.894554 
L 217.751049 268.760302 
L 223.177622 273.528738 
L 228.604196 278.201808 
L 234.030769 282.78142 
L 239.457343 287.269443 
L 244.883916 291.667709 
L 250.31049 295.978012 
L 255.737063 300.202112 
L 261.163636 304.341733 
L 266.59021 308.398564 
L 272.016783 312.374261 
L 277.443357 316.270447 
L 282.86993 320.088712 
L 288.296503 323.830615 
L 293.723077 327.497681 
L 299.14965 331.091409 
L 304.576224 334.613265 
L 310.002797 338.064686 
L 315.429371 341.447081 
L 320.855944 344.76183 
L 326.282517 348.010286 
L 331.709091 351.193776 
L 337.135664 354.313598 
L 342.562238 357.371025 
L 347.988811 360.367307 
L 353.415385 363.303664 
L 358.841958 366.181296 
L 364.268531 369.001378 
L 369.695105 371.76506 
L 375.121678 374.47347 
L 380.548252 377.127714 
L 385.974825 379.728874 
L 391.401399 382.278013 
L 396.827972 384.776171 
L 402.254545 387.224368 
L 407.681119 389.623602 
L 413.107692 391.974854 
L 418.534266 394.279081 
L 423.960839 396.537226 
L 429.387413 398.75021 
L 434.813986 400.918935 
L 440.240559 403.044287 
L 445.667133 405.127134 
L 451.093706 407.168325 
L 456.52028 409.168693 
L 461.946853 411.129056 
L 467.373427 413.050213 
L 472.8 414.932948 
L 478.226573 416.778029 
L 483.653147 418.58621 
L 489.07972 420.358229 
L 494.506294 422.094808 
L 499.932867 423.796657 
L 505.359441 425.46447 
L 510.786014 427.098928 
L 516.212587 428.700698 
L 521.639161 430.270434 
L 527.065734 431.808776 
L 532.492308 433.316352 
L 537.918881 434.793778 
L 543.345455 436.241656 
L 548.772028 437.660577 
L 554.198601 439.051122 
L 559.625175 440.413856 
L 565.051748 441.749336 
L 570.478322 443.058108 
L 575.904895 444.340705 
L 581.331469 445.597651 
L 586.758042 446.829459 
L 592.184615 448.036632 
L 597.611189 449.219662 
L 603.037762 450.379032 
L 608.464336 451.515215 
L 613.890909 452.628676 
L 619.317483 453.719868 
L 624.744056 454.789237 
L 630.170629 455.83722 
L 635.597203 456.864243 
L 641.023776 457.870727 
L 646.45035 458.857082 
L 651.876923 459.82371 
" clip-path="url(#pdfeeb8e655)" style="fill: none; stroke: #ff7f0e; stroke-width: 2; stroke-linecap: square"/>
   </g>
   <g id="line2d_3">
    <path d="M 114.646154 257.195062 
L 120.072727 259.207084 
L 125.499301 261.202912 
L 130.925874 263.182678 
L 136.352448 265.14651 
L 141.779021 267.094536 
L 147.205594 269.026885 
L 152.632168 270.943681 
L 158.058741 272.84505 
L 163.485315 274.731117 
L 168.911888 276.602005 
L 174.338462 278.457835 
L 179.765035 280.298728 
L 185.191608 282.124806 
L 190.618182 283.936187 
L 196.044755 285.73299 
L 201.471329 287.515331 
L 206.897902 289.283328 
L 212.324476 291.037096 
L 217.751049 292.776748 
L 223.177622 294.5024 
L 228.604196 296.214163 
L 234.030769 297.91215 
L 239.457343 299.59647 
L 244.883916 301.267235 
L 250.31049 302.924553 
L 255.737063 304.568533 
L 261.163636 306.199281 
L 266.59021 307.816905 
L 272.016783 309.42151 
L 277.443357 311.0132 
L 282.86993 312.59208 
L 288.296503 314.158253 
L 293.723077 315.711821 
L 299.14965 317.252886 
L 304.576224 318.781547 
L 310.002797 320.297906 
L 315.429371 321.802061 
L 320.855944 323.294109 
L 326.282517 324.77415 
L 331.709091 326.242278 
L 337.135664 327.698591 
L 342.562238 329.143183 
L 347.988811 330.576149 
L 353.415385 331.997581 
L 358.841958 333.407574 
L 364.268531 334.806219 
L 369.695105 336.193607 
L 375.121678 337.569829 
L 380.548252 338.934975 
L 385.974825 340.289134 
L 391.401399 341.632394 
L 396.827972 342.964843 
L 402.254545 344.286569 
L 407.681119 345.597657 
L 413.107692 346.898193 
L 418.534266 348.188262 
L 423.960839 349.467948 
L 429.387413 350.737335 
L 434.813986 351.996505 
L 440.240559 353.245542 
L 445.667133 354.484525 
L 451.093706 355.713538 
L 456.52028 356.932659 
L 461.946853 358.141968 
L 467.373427 359.341544 
L 472.8 360.531466 
L 478.226573 361.711811 
L 483.653147 362.882656 
L 489.07972 364.044078 
L 494.506294 365.196152 
L 499.932867 366.338955 
L 505.359441 367.47256 
L 510.786014 368.597041 
L 516.212587 369.712472 
L 521.639161 370.818926 
L 527.065734 371.916475 
L 532.492308 373.005191 
L 537.918881 374.085144 
L 543.345455 375.156406 
L 548.772028 376.219046 
L 554.198601 377.273133 
L 559.625175 378.318737 
L 565.051748 379.355926 
L 570.478322 380.384767 
L 575.904895 381.405328 
L 581.331469 382.417675 
L 586.758042 383.421874 
L 592.184615 384.417991 
L 597.611189 385.406092 
L 603.037762 386.386239 
L 608.464336 387.358499 
L 613.890909 388.322933 
L 619.317483 389.279606 
L 624.744056 390.228579 
L 630.170629 391.169914 
L 635.597203 392.103673 
L 641.023776 393.029917 
L 646.45035 393.948707 
L 651.876923 394.860101 
" clip-path="url(#pdfeeb8e655)" style="fill: none; stroke: #2ca02c; stroke-width: 2; stroke-linecap: square"/>
   </g>
   <g id="line2d_4">
    <path d="M 7.2 507.190123 
L 705.6 507.190123 
" clip-path="url(#pdfeeb8e655)" style="fill: none; stroke: #000000; stroke-linecap: square"/>
   </g>
   <g id="line2d_5">
    <path d="M 114.646154 682.186667 
L 114.646154 7.2 
" clip-path="url(#pdfeeb8e655)" style="fill: none; stroke: #000000; stroke-linecap: square"/>
   </g>
   <g id="line2d_6">
    <path d="M 159.650768 507.190123 
L 159.650768 211.186869 
" clip-path="url(#pdfeeb8e655)" style="fill: none; stroke-dasharray: 3.7,1.6; stroke-dashoffset: 0; stroke: #000000"/>
   </g>
   <g id="line2d_7">
    <path d="M 265.282186 507.190123 
L 265.282186 307.428187 
" clip-path="url(#pdfeeb8e655)" style="fill: none; stroke-dasharray: 3.7,1.6; stroke-dashoffset: 0; stroke: #000000"/>
   </g>
   <g id="text_1">
    <!-- Commercial -->
    <g style="fill: #1f77b4" transform="translate(195.230769 132.197531) scale(0.14 -0.14)">
     <defs>
      <path id="DejaVuSans-Bold-43" d="M 4288 256 
Q 3956 84 3597 -3 
Q 3238 -91 2847 -91 
Q 1681 -91 1000 561 
Q 319 1213 319 2328 
Q 319 3447 1000 4098 
Q 1681 4750 2847 4750 
Q 3238 4750 3597 4662 
Q 3956 4575 4288 4403 
L 4288 3438 
Q 3953 3666 3628 3772 
Q 3303 3878 2944 3878 
Q 2300 3878 1931 3465 
Q 1563 3053 1563 2328 
Q 1563 1606 1931 1193 
Q 2300 781 2944 781 
Q 3303 781 3628 887 
Q 3953 994 4288 1222 
L 4288 256 
z
" transform="scale(0.015625)"/>
      <path id="DejaVuSans-Bold-6f" d="M 2203 2784 
Q 1831 2784 1636 2517 
Q 1441 2250 1441 1747 
Q 1441 1244 1636 976 
Q 1831 709 2203 709 
Q 2569 709 2762 976 
Q 2956 1244 2956 1747 
Q 2956 2250 2762 2517 
Q 2569 2784 2203 2784 
z
M 2203 3584 
Q 3106 3584 3614 3096 
Q 4122 2609 4122 1747 
Q 4122 884 3614 396 
Q 3106 -91 2203 -91 
Q 1297 -91 786 396 
Q 275 884 275 1747 
Q 275 2609 786 3096 
Q 1297 3584 2203 3584 
z
" transform="scale(0.015625)"/>
      <path id="DejaVuSans-Bold-6d" d="M 3781 2919 
Q 3994 3244 4286 3414 
Q 4578 3584 4928 3584 
Q 5531 3584 5847 3212 
Q 6163 2841 6163 2131 
L 6163 0 
L 5038 0 
L 5038 1825 
Q 5041 1866 5042 1909 
Q 5044 1953 5044 2034 
Q 5044 2406 4934 2573 
Q 4825 2741 4581 2741 
Q 4263 2741 4089 2478 
Q 3916 2216 3909 1719 
L 3909 0 
L 2784 0 
L 2784 1825 
Q 2784 2406 2684 2573 
Q 2584 2741 2328 2741 
Q 2006 2741 1831 2477 
Q 1656 2213 1656 1722 
L 1656 0 
L 531 0 
L 531 3500 
L 1656 3500 
L 1656 2988 
Q 1863 3284 2130 3434 
Q 2397 3584 2719 3584 
Q 3081 3584 3359 3409 
Q 3638 3234 3781 2919 
z
" transform="scale(0.015625)"/>
      <path id="DejaVuSans-Bold-65" d="M 4031 1759 
L 4031 1441 
L 1416 1441 
Q 1456 1047 1700 850 
Q 1944 653 2381 653 
Q 2734 653 3104 758 
Q 3475 863 3866 1075 
L 3866 213 
Q 3469 63 3072 -14 
Q 2675 -91 2278 -91 
Q 1328 -91 801 392 
Q 275 875 275 1747 
Q 275 2603 792 3093 
Q 1309 3584 2216 3584 
Q 3041 3584 3536 3087 
Q 4031 2591 4031 1759 
z
M 2881 2131 
Q 2881 2450 2695 2645 
Q 2509 2841 2209 2841 
Q 1884 2841 1681 2658 
Q 1478 2475 1428 2131 
L 2881 2131 
z
" transform="scale(0.015625)"/>
      <path id="DejaVuSans-Bold-72" d="M 3138 2547 
Q 2991 2616 2845 2648 
Q 2700 2681 2553 2681 
Q 2122 2681 1889 2404 
Q 1656 2128 1656 1613 
L 1656 0 
L 538 0 
L 538 3500 
L 1656 3500 
L 1656 2925 
Q 1872 3269 2151 3426 
Q 2431 3584 2822 3584 
Q 2878 3584 2943 3579 
Q 3009 3575 3134 3559 
L 3138 2547 
z
" transform="scale(0.015625)"/>
      <path id="DejaVuSans-Bold-63" d="M 3366 3391 
L 3366 2478 
Q 3138 2634 2908 2709 
Q 2678 2784 2431 2784 
Q 1963 2784 1702 2511 
Q 1441 2238 1441 1747 
Q 1441 1256 1702 982 
Q 1963 709 2431 709 
Q 2694 709 2930 787 
Q 3166 866 3366 1019 
L 3366 103 
Q 3103 6 2833 -42 
Q 2563 -91 2291 -91 
Q 1344 -91 809 395 
Q 275 881 275 1747 
Q 275 2613 809 3098 
Q 1344 3584 2291 3584 
Q 2566 3584 2833 3536 
Q 3100 3488 3366 3391 
z
" transform="scale(0.015625)"/>
      <path id="DejaVuSans-Bold-69" d="M 538 3500 
L 1656 3500 
L 1656 0 
L 538 0 
L 538 3500 
z
M 538 4863 
L 1656 4863 
L 1656 3950 
L 538 3950 
L 538 4863 
z
" transform="scale(0.015625)"/>
      <path id="DejaVuSans-Bold-61" d="M 2106 1575 
Q 1756 1575 1579 1456 
Q 1403 1338 1403 1106 
Q 1403 894 1545 773 
Q 1688 653 1941 653 
Q 2256 653 2472 879 
Q 2688 1106 2688 1447 
L 2688 1575 
L 2106 1575 
z
M 3816 1997 
L 3816 0 
L 2688 0 
L 2688 519 
Q 2463 200 2181 54 
Q 1900 -91 1497 -91 
Q 953 -91 614 226 
Q 275 544 275 1050 
Q 275 1666 698 1953 
Q 1122 2241 2028 2241 
L 2688 2241 
L 2688 2328 
Q 2688 2594 2478 2717 
Q 2269 2841 1825 2841 
Q 1466 2841 1156 2769 
Q 847 2697 581 2553 
L 581 3406 
Q 941 3494 1303 3539 
Q 1666 3584 2028 3584 
Q 2975 3584 3395 3211 
Q 3816 2838 3816 1997 
z
" transform="scale(0.015625)"/>
      <path id="DejaVuSans-Bold-6c" d="M 538 4863 
L 1656 4863 
L 1656 0 
L 538 0 
L 538 4863 
z
" transform="scale(0.015625)"/>
     </defs>
     <use xlink:href="#DejaVuSans-Bold-43"/>
     <use xlink:href="#DejaVuSans-Bold-6f" transform="translate(73.388672 0)"/>
     <use xlink:href="#DejaVuSans-Bold-6d" transform="translate(142.089844 0)"/>
     <use xlink:href="#DejaVuSans-Bold-6d" transform="translate(246.289062 0)"/>
     <use xlink:href="#DejaVuSans-Bold-65" transform="translate(350.488281 0)"/>
     <use xlink:href="#DejaVuSans-Bold-72" transform="translate(418.310547 0)"/>
     <use xlink:href="#DejaVuSans-Bold-63" transform="translate(467.626953 0)"/>
     <use xlink:href="#DejaVuSans-Bold-69" transform="translate(526.904297 0)"/>
     <use xlink:href="#DejaVuSans-Bold-61" transform="translate(561.181641 0)"/>
     <use xlink:href="#DejaVuSans-Bold-6c" transform="translate(628.662109 0)"/>
    </g>
   </g>
   <g id="text_2">
    <!-- Residential -->
    <g style="fill: #ff7f0e" transform="translate(356.4 282.194568) scale(0.14 -0.14)">
     <defs>
      <path id="DejaVuSans-BoldOblique-52" d="M 2350 2597 
Q 2759 2597 2970 2787 
Q 3181 2978 3181 3347 
Q 3181 3578 3036 3686 
Q 2891 3794 2578 3794 
L 2081 3794 
L 1844 2597 
L 2350 2597 
z
M 1684 1766 
L 1338 0 
L 134 0 
L 1044 4666 
L 2822 4666 
Q 3591 4666 3987 4378 
Q 4384 4091 4384 3531 
Q 4384 2966 4071 2600 
Q 3759 2234 3225 2181 
Q 3469 2131 3631 1932 
Q 3794 1734 3916 1325 
L 4313 0 
L 3116 0 
L 2766 1159 
Q 2659 1506 2507 1636 
Q 2356 1766 2069 1766 
L 1684 1766 
z
" transform="scale(0.015625)"/>
      <path id="DejaVuSans-BoldOblique-65" d="M 4025 1619 
L 3988 1441 
L 1369 1441 
Q 1369 1422 1366 1386 
Q 1363 1350 1363 1331 
Q 1363 991 1567 822 
Q 1772 653 2181 653 
Q 2534 653 2926 759 
Q 3319 866 3750 1075 
L 3578 206 
Q 3169 56 2764 -17 
Q 2359 -91 1941 -91 
Q 1122 -91 676 287 
Q 231 666 231 1356 
Q 231 1756 373 2132 
Q 516 2509 788 2822 
Q 1109 3197 1557 3390 
Q 2006 3584 2553 3584 
Q 3263 3584 3680 3206 
Q 4097 2828 4097 2188 
Q 4097 2063 4080 1923 
Q 4063 1784 4025 1619 
z
M 2969 2131 
Q 2978 2172 2983 2214 
Q 2988 2256 2988 2297 
Q 2988 2547 2838 2694 
Q 2688 2841 2431 2841 
Q 2103 2841 1873 2661 
Q 1644 2481 1522 2131 
L 2969 2131 
z
" transform="scale(0.015625)"/>
      <path id="DejaVuSans-BoldOblique-73" d="M 3584 3391 
L 3419 2522 
Q 3091 2678 2766 2759 
Q 2441 2841 2150 2841 
Q 1819 2841 1639 2755 
Q 1459 2669 1459 2509 
Q 1459 2416 1559 2359 
Q 1659 2303 1953 2241 
L 2156 2203 
Q 2834 2059 3106 1832 
Q 3378 1606 3378 1203 
Q 3378 594 2900 251 
Q 2422 -91 1563 -91 
Q 1203 -91 828 -34 
Q 453 22 63 134 
L 231 1013 
Q 534 834 879 743 
Q 1225 653 1588 653 
Q 1941 653 2119 737 
Q 2297 822 2297 984 
Q 2297 1097 2197 1159 
Q 2097 1222 1784 1288 
L 1581 1325 
Q 981 1450 725 1694 
Q 469 1938 469 2369 
Q 469 2953 911 3268 
Q 1353 3584 2175 3584 
Q 2534 3584 2882 3536 
Q 3231 3488 3584 3391 
z
" transform="scale(0.015625)"/>
      <path id="DejaVuSans-BoldOblique-69" d="M 878 3500 
L 2003 3500 
L 1319 0 
L 197 0 
L 878 3500 
z
M 1141 4863 
L 2266 4863 
L 2088 3950 
L 959 3950 
L 1141 4863 
z
" transform="scale(0.015625)"/>
      <path id="DejaVuSans-BoldOblique-64" d="M 1966 722 
Q 2397 722 2667 1119 
Q 2938 1516 2938 2156 
Q 2938 2447 2786 2609 
Q 2634 2772 2363 2772 
Q 1938 2772 1663 2380 
Q 1388 1988 1388 1375 
Q 1388 1056 1536 889 
Q 1684 722 1966 722 
z
M 3144 2988 
L 3506 4863 
L 4634 4863 
L 3688 0 
L 2559 0 
L 2663 506 
Q 2406 200 2125 54 
Q 1844 -91 1509 -91 
Q 919 -91 575 284 
Q 231 659 231 1306 
Q 231 1709 351 2090 
Q 472 2472 697 2784 
Q 981 3178 1339 3381 
Q 1697 3584 2106 3584 
Q 2466 3584 2717 3439 
Q 2969 3294 3144 2988 
z
" transform="scale(0.015625)"/>
      <path id="DejaVuSans-BoldOblique-6e" d="M 4128 2131 
L 3713 0 
L 2591 0 
L 2944 1825 
Q 2981 2003 3001 2126 
Q 3022 2250 3022 2322 
Q 3022 2522 2911 2631 
Q 2800 2741 2597 2741 
Q 2250 2741 2001 2470 
Q 1753 2200 1656 1722 
L 1319 0 
L 197 0 
L 878 3500 
L 2003 3500 
L 1900 2988 
Q 2209 3291 2521 3437 
Q 2834 3584 3175 3584 
Q 3659 3584 3921 3331 
Q 4184 3078 4184 2619 
Q 4184 2519 4170 2397 
Q 4156 2275 4128 2131 
z
" transform="scale(0.015625)"/>
      <path id="DejaVuSans-BoldOblique-74" d="M 2303 4494 
L 2113 3500 
L 3256 3500 
L 3097 2700 
L 1953 2700 
L 1666 1219 
Q 1653 1169 1648 1134 
Q 1644 1100 1644 1069 
Q 1644 925 1739 862 
Q 1834 800 2059 800 
L 2638 800 
L 2478 0 
L 1538 0 
Q 1031 0 765 212 
Q 500 425 500 825 
Q 500 913 509 1013 
Q 519 1113 538 1216 
L 825 2700 
L 275 2700 
L 428 3500 
L 984 3500 
L 1178 4494 
L 2303 4494 
z
" transform="scale(0.015625)"/>
      <path id="DejaVuSans-BoldOblique-61" d="M 2106 1575 
Q 1688 1575 1473 1445 
Q 1259 1316 1259 1063 
Q 1259 872 1386 762 
Q 1513 653 1734 653 
Q 2078 653 2309 861 
Q 2541 1069 2619 1447 
L 2644 1575 
L 2106 1575 
z
M 3853 1997 
L 3463 0 
L 2344 0 
L 2438 519 
Q 2163 206 1856 57 
Q 1550 -91 1191 -91 
Q 694 -91 401 167 
Q 109 425 109 863 
Q 109 1531 626 1886 
Q 1144 2241 2119 2241 
L 2778 2241 
L 2791 2328 
Q 2800 2372 2801 2390 
Q 2803 2409 2803 2425 
Q 2803 2631 2608 2736 
Q 2413 2841 2028 2841 
Q 1681 2841 1356 2769 
Q 1031 2697 728 2553 
L 897 3406 
Q 1247 3494 1614 3539 
Q 1981 3584 2375 3584 
Q 3153 3584 3531 3317 
Q 3909 3050 3909 2503 
Q 3909 2397 3895 2270 
Q 3881 2144 3853 1997 
z
" transform="scale(0.015625)"/>
      <path id="DejaVuSans-BoldOblique-6c" d="M 1141 4863 
L 2266 4863 
L 1319 0 
L 197 0 
L 1141 4863 
z
" transform="scale(0.015625)"/>
     </defs>
     <use xlink:href="#DejaVuSans-BoldOblique-52"/>
     <use xlink:href="#DejaVuSans-BoldOblique-65" transform="translate(72.001953 0)"/>
     <use xlink:href="#DejaVuSans-BoldOblique-73" transform="translate(139.824219 0)"/>
     <use xlink:href="#DejaVuSans-BoldOblique-69" transform="translate(199.345703 0)"/>
     <use xlink:href="#DejaVuSans-BoldOblique-64" transform="translate(233.623047 0)"/>
     <use xlink:href="#DejaVuSans-BoldOblique-65" transform="translate(305.205078 0)"/>
     <use xlink:href="#DejaVuSans-BoldOblique-6e" transform="translate(373.027344 0)"/>
     <use xlink:href="#DejaVuSans-BoldOblique-74" transform="translate(444.21875 0)"/>
     <use xlink:href="#DejaVuSans-BoldOblique-69" transform="translate(492.021484 0)"/>
     <use xlink:href="#DejaVuSans-BoldOblique-61" transform="translate(526.298828 0)"/>
     <use xlink:href="#DejaVuSans-BoldOblique-6c" transform="translate(593.779297 0)"/>
    </g>
   </g>
   <g id="text_3">
    <!-- Agricultural -->
    <g style="fill: #2ca02c" transform="translate(517.569231 347.193284) scale(0.14 -0.14)">
     <defs>
      <path id="DejaVuSans-BoldOblique-41" d="M 3144 850 
L 1281 850 
L 819 0 
L -416 0 
L 2222 4666 
L 3597 4666 
L 4422 0 
L 3278 0 
L 3144 850 
z
M 1734 1697 
L 2988 1697 
L 2706 3494 
L 1734 1697 
z
" transform="scale(0.015625)"/>
      <path id="DejaVuSans-BoldOblique-67" d="M 2675 594 
Q 2406 288 2128 144 
Q 1850 0 1522 0 
Q 928 0 583 383 
Q 238 766 238 1428 
Q 238 1781 358 2136 
Q 478 2491 703 2803 
Q 978 3181 1334 3379 
Q 1691 3578 2100 3578 
Q 2469 3578 2720 3434 
Q 2972 3291 3144 2981 
L 3238 3500 
L 4366 3500 
L 3775 459 
Q 3594 -481 3000 -931 
Q 2406 -1381 1350 -1381 
Q 1025 -1381 723 -1331 
Q 422 -1281 128 -1178 
L 294 -306 
Q 559 -475 825 -558 
Q 1091 -641 1369 -641 
Q 1925 -641 2223 -403 
Q 2522 -166 2625 353 
L 2675 594 
z
M 2363 2772 
Q 1950 2772 1676 2400 
Q 1403 2028 1403 1466 
Q 1403 1147 1550 980 
Q 1697 813 1978 813 
Q 2388 813 2663 1183 
Q 2938 1553 2938 2106 
Q 2938 2431 2791 2601 
Q 2644 2772 2363 2772 
z
" transform="scale(0.015625)"/>
      <path id="DejaVuSans-BoldOblique-72" d="M 3291 2547 
Q 3175 2613 3034 2647 
Q 2894 2681 2731 2681 
Q 2303 2681 2020 2406 
Q 1738 2131 1638 1613 
L 1319 0 
L 197 0 
L 878 3500 
L 2003 3500 
L 1881 2900 
Q 2103 3231 2436 3407 
Q 2769 3584 3175 3584 
Q 3234 3584 3309 3578 
Q 3384 3572 3488 3559 
L 3291 2547 
z
" transform="scale(0.015625)"/>
      <path id="DejaVuSans-BoldOblique-63" d="M 3719 3391 
L 3541 2478 
Q 3316 2628 3097 2706 
Q 2878 2784 2669 2784 
Q 2122 2784 1775 2417 
Q 1428 2050 1428 1478 
Q 1428 1113 1643 911 
Q 1859 709 2253 709 
Q 2516 709 2769 787 
Q 3022 866 3250 1019 
L 3078 103 
Q 2800 6 2519 -42 
Q 2238 -91 1953 -91 
Q 1128 -91 683 279 
Q 238 650 238 1331 
Q 238 1759 402 2162 
Q 566 2566 872 2888 
Q 1213 3241 1653 3412 
Q 2094 3584 2669 3584 
Q 2934 3584 3196 3536 
Q 3459 3488 3719 3391 
z
" transform="scale(0.015625)"/>
      <path id="DejaVuSans-BoldOblique-75" d="M 434 1363 
L 844 3500 
L 1966 3500 
L 1613 1678 
Q 1575 1500 1556 1375 
Q 1538 1250 1538 1178 
Q 1538 981 1647 872 
Q 1756 763 1959 763 
Q 2306 763 2556 1031 
Q 2806 1300 2900 1778 
L 3238 3500 
L 4359 3500 
L 3681 0 
L 2553 0 
L 2656 513 
Q 2369 209 2053 59 
Q 1738 -91 1388 -91 
Q 909 -91 646 162 
Q 384 416 384 878 
Q 384 988 396 1109 
Q 409 1231 434 1363 
z
" transform="scale(0.015625)"/>
     </defs>
     <use xlink:href="#DejaVuSans-BoldOblique-41"/>
     <use xlink:href="#DejaVuSans-BoldOblique-67" transform="translate(77.392578 0)"/>
     <use xlink:href="#DejaVuSans-BoldOblique-72" transform="translate(148.974609 0)"/>
     <use xlink:href="#DejaVuSans-BoldOblique-69" transform="translate(198.291016 0)"/>
     <use xlink:href="#DejaVuSans-BoldOblique-63" transform="translate(232.568359 0)"/>
     <use xlink:href="#DejaVuSans-BoldOblique-75" transform="translate(291.845703 0)"/>
     <use xlink:href="#DejaVuSans-BoldOblique-6c" transform="translate(363.037109 0)"/>
     <use xlink:href="#DejaVuSans-BoldOblique-74" transform="translate(397.314453 0)"/>
     <use xlink:href="#DejaVuSans-BoldOblique-75" transform="translate(445.117188 0)"/>
     <use xlink:href="#DejaVuSans-BoldOblique-72" transform="translate(516.308594 0)"/>
     <use xlink:href="#DejaVuSans-BoldOblique-61" transform="translate(565.625 0)"/>
     <use xlink:href="#DejaVuSans-BoldOblique-6c" transform="translate(633.105469 0)"/>
    </g>
   </g>
   <g id="text_4">
    <!-- £ per m² -->
    <g transform="translate(59.296587 283.043812) rotate(-90) scale(0.12 -0.12)">
     <defs>
      <path id="DejaVuSans-a3" d="M 3444 4563 
L 3444 3994 
Q 3206 4122 2993 4186 
Q 2781 4250 2591 4250 
Q 2128 4250 1947 4008 
Q 1766 3766 1766 3103 
L 1766 2431 
L 2988 2431 
L 2988 1984 
L 1766 1984 
L 1766 531 
L 3506 531 
L 3506 0 
L 403 0 
L 403 531 
L 1141 531 
L 1141 1984 
L 519 1984 
L 519 2431 
L 1141 2431 
L 1141 3175 
Q 1141 3991 1475 4370 
Q 1809 4750 2534 4750 
Q 2725 4750 2961 4701 
Q 3197 4653 3444 4563 
z
" transform="scale(0.015625)"/>
      <path id="DejaVuSans-20" transform="scale(0.015625)"/>
      <path id="DejaVuSans-70" d="M 1159 525 
L 1159 -1331 
L 581 -1331 
L 581 3500 
L 1159 3500 
L 1159 2969 
Q 1341 3281 1617 3432 
Q 1894 3584 2278 3584 
Q 2916 3584 3314 3078 
Q 3713 2572 3713 1747 
Q 3713 922 3314 415 
Q 2916 -91 2278 -91 
Q 1894 -91 1617 61 
Q 1341 213 1159 525 
z
M 3116 1747 
Q 3116 2381 2855 2742 
Q 2594 3103 2138 3103 
Q 1681 3103 1420 2742 
Q 1159 2381 1159 1747 
Q 1159 1113 1420 752 
Q 1681 391 2138 391 
Q 2594 391 2855 752 
Q 3116 1113 3116 1747 
z
" transform="scale(0.015625)"/>
      <path id="DejaVuSans-65" d="M 3597 1894 
L 3597 1613 
L 953 1613 
Q 991 1019 1311 708 
Q 1631 397 2203 397 
Q 2534 397 2845 478 
Q 3156 559 3463 722 
L 3463 178 
Q 3153 47 2828 -22 
Q 2503 -91 2169 -91 
Q 1331 -91 842 396 
Q 353 884 353 1716 
Q 353 2575 817 3079 
Q 1281 3584 2069 3584 
Q 2775 3584 3186 3129 
Q 3597 2675 3597 1894 
z
M 3022 2063 
Q 3016 2534 2758 2815 
Q 2500 3097 2075 3097 
Q 1594 3097 1305 2825 
Q 1016 2553 972 2059 
L 3022 2063 
z
" transform="scale(0.015625)"/>
      <path id="DejaVuSans-72" d="M 2631 2963 
Q 2534 3019 2420 3045 
Q 2306 3072 2169 3072 
Q 1681 3072 1420 2755 
Q 1159 2438 1159 1844 
L 1159 0 
L 581 0 
L 581 3500 
L 1159 3500 
L 1159 2956 
Q 1341 3275 1631 3429 
Q 1922 3584 2338 3584 
Q 2397 3584 2469 3576 
Q 2541 3569 2628 3553 
L 2631 2963 
z
" transform="scale(0.015625)"/>
      <path id="DejaVuSans-6d" d="M 3328 2828 
Q 3544 3216 3844 3400 
Q 4144 3584 4550 3584 
Q 5097 3584 5394 3201 
Q 5691 2819 5691 2113 
L 5691 0 
L 5113 0 
L 5113 2094 
Q 5113 2597 4934 2840 
Q 4756 3084 4391 3084 
Q 3944 3084 3684 2787 
Q 3425 2491 3425 1978 
L 3425 0 
L 2847 0 
L 2847 2094 
Q 2847 2600 2669 2842 
Q 2491 3084 2119 3084 
Q 1678 3084 1418 2786 
Q 1159 2488 1159 1978 
L 1159 0 
L 581 0 
L 581 3500 
L 1159 3500 
L 1159 2956 
Q 1356 3278 1631 3431 
Q 1906 3584 2284 3584 
Q 2666 3584 2933 3390 
Q 3200 3197 3328 2828 
z
" transform="scale(0.015625)"/>
      <path id="DejaVuSans-b2" d="M 838 2444 
L 2163 2444 
L 2163 2088 
L 294 2088 
L 294 2431 
Q 400 2528 597 2703 
Q 1672 3656 1672 3950 
Q 1672 4156 1509 4282 
Q 1347 4409 1081 4409 
Q 919 4409 728 4354 
Q 538 4300 313 4191 
L 313 4575 
Q 553 4663 761 4706 
Q 969 4750 1147 4750 
Q 1600 4750 1872 4544 
Q 2144 4338 2144 4000 
Q 2144 3566 1109 2678 
Q 934 2528 838 2444 
z
" transform="scale(0.015625)"/>
     </defs>
     <use xlink:href="#DejaVuSans-a3"/>
     <use xlink:href="#DejaVuSans-20" transform="translate(63.623047 0)"/>
     <use xlink:href="#DejaVuSans-70" transform="translate(95.410156 0)"/>
     <use xlink:href="#DejaVuSans-65" transform="translate(158.886719 0)"/>
     <use xlink:href="#DejaVuSans-72" transform="translate(220.410156 0)"/>
     <use xlink:href="#DejaVuSans-20" transform="translate(261.523438 0)"/>
     <use xlink:href="#DejaVuSans-6d" transform="translate(293.310547 0)"/>
     <use xlink:href="#DejaVuSans-b2" transform="translate(390.722656 0)"/>
    </g>
   </g>
   <g id="patch_6">
    <path d="M 193.228942 507.190123 
Q 114.643437 507.190123 37.734982 507.190123 
" style="fill: none; stroke: #000000; stroke-width: 1.5; stroke-linecap: round"/>
    <path d="M 41.734982 509.190123 
L 37.734982 507.190123 
L 41.734982 505.190123 
" style="fill: none; stroke: #000000; stroke-width: 1.5; stroke-linecap: round"/>
   </g>
   <g id="text_5">
    <!-- Distance from CBD -->
    <g transform="translate(34.061538 537.189531) scale(0.12 -0.12)">
     <defs>
      <path id="DejaVuSans-Oblique-44" d="M 1081 4666 
L 2438 4666 
Q 3519 4666 4070 4208 
Q 4622 3750 4622 2847 
Q 4622 2250 4412 1698 
Q 4203 1147 3834 769 
Q 3463 381 2891 190 
Q 2319 0 1538 0 
L 172 0 
L 1081 4666 
z
M 1613 4147 
L 909 519 
L 1734 519 
Q 2794 519 3375 1128 
Q 3956 1738 3956 2847 
Q 3956 3519 3581 3833 
Q 3206 4147 2406 4147 
L 1613 4147 
z
" transform="scale(0.015625)"/>
      <path id="DejaVuSans-Oblique-69" d="M 1172 4863 
L 1747 4863 
L 1606 4134 
L 1031 4134 
L 1172 4863 
z
M 909 3500 
L 1484 3500 
L 800 0 
L 225 0 
L 909 3500 
z
" transform="scale(0.015625)"/>
      <path id="DejaVuSans-Oblique-73" d="M 3200 3397 
L 3091 2853 
Q 2863 2978 2609 3040 
Q 2356 3103 2088 3103 
Q 1634 3103 1373 2948 
Q 1113 2794 1113 2528 
Q 1113 2219 1719 2053 
Q 1766 2041 1788 2034 
L 1972 1978 
Q 2547 1819 2739 1644 
Q 2931 1469 2931 1166 
Q 2931 609 2489 259 
Q 2047 -91 1331 -91 
Q 1053 -91 747 -37 
Q 441 16 72 128 
L 184 722 
Q 500 559 806 475 
Q 1113 391 1394 391 
Q 1816 391 2080 572 
Q 2344 753 2344 1031 
Q 2344 1331 1650 1516 
L 1591 1531 
L 1394 1581 
Q 956 1697 753 1886 
Q 550 2075 550 2369 
Q 550 2928 970 3256 
Q 1391 3584 2113 3584 
Q 2397 3584 2667 3537 
Q 2938 3491 3200 3397 
z
" transform="scale(0.015625)"/>
      <path id="DejaVuSans-Oblique-74" d="M 2706 3500 
L 2619 3053 
L 1472 3053 
L 1100 1153 
Q 1081 1047 1072 975 
Q 1063 903 1063 863 
Q 1063 663 1183 572 
Q 1303 481 1569 481 
L 2150 481 
L 2053 0 
L 1503 0 
Q 991 0 739 200 
Q 488 400 488 806 
Q 488 878 497 964 
Q 506 1050 525 1153 
L 897 3053 
L 409 3053 
L 500 3500 
L 978 3500 
L 1172 4494 
L 1747 4494 
L 1556 3500 
L 2706 3500 
z
" transform="scale(0.015625)"/>
      <path id="DejaVuSans-Oblique-61" d="M 3438 1997 
L 3047 0 
L 2472 0 
L 2578 531 
Q 2325 219 2001 64 
Q 1678 -91 1281 -91 
Q 834 -91 548 182 
Q 263 456 263 884 
Q 263 1497 752 1853 
Q 1241 2209 2100 2209 
L 2900 2209 
L 2931 2363 
Q 2938 2388 2941 2417 
Q 2944 2447 2944 2509 
Q 2944 2788 2717 2942 
Q 2491 3097 2081 3097 
Q 1800 3097 1504 3025 
Q 1209 2953 897 2809 
L 997 3341 
Q 1322 3463 1633 3523 
Q 1944 3584 2234 3584 
Q 2853 3584 3176 3315 
Q 3500 3047 3500 2534 
Q 3500 2431 3484 2292 
Q 3469 2153 3438 1997 
z
M 2816 1759 
L 2241 1759 
Q 1534 1759 1195 1570 
Q 856 1381 856 984 
Q 856 709 1029 553 
Q 1203 397 1509 397 
Q 1978 397 2328 733 
Q 2678 1069 2791 1631 
L 2816 1759 
z
" transform="scale(0.015625)"/>
      <path id="DejaVuSans-Oblique-6e" d="M 3566 2113 
L 3156 0 
L 2578 0 
L 2988 2091 
Q 3016 2238 3031 2350 
Q 3047 2463 3047 2528 
Q 3047 2791 2881 2937 
Q 2716 3084 2419 3084 
Q 1956 3084 1622 2776 
Q 1288 2469 1184 1941 
L 800 0 
L 225 0 
L 903 3500 
L 1478 3500 
L 1363 2950 
Q 1603 3253 1940 3418 
Q 2278 3584 2650 3584 
Q 3113 3584 3367 3334 
Q 3622 3084 3622 2631 
Q 3622 2519 3608 2391 
Q 3594 2263 3566 2113 
z
" transform="scale(0.015625)"/>
      <path id="DejaVuSans-Oblique-63" d="M 3431 3366 
L 3316 2797 
Q 3109 2947 2876 3022 
Q 2644 3097 2394 3097 
Q 2119 3097 1870 3000 
Q 1622 2903 1453 2725 
Q 1184 2453 1037 2087 
Q 891 1722 891 1331 
Q 891 859 1127 628 
Q 1363 397 1844 397 
Q 2081 397 2348 469 
Q 2616 541 2906 684 
L 2797 116 
Q 2547 13 2283 -39 
Q 2019 -91 1741 -91 
Q 1044 -91 669 257 
Q 294 606 294 1253 
Q 294 1797 489 2255 
Q 684 2713 1069 3078 
Q 1331 3328 1684 3456 
Q 2038 3584 2456 3584 
Q 2700 3584 2940 3529 
Q 3181 3475 3431 3366 
z
" transform="scale(0.015625)"/>
      <path id="DejaVuSans-Oblique-65" d="M 3078 2063 
Q 3088 2113 3092 2166 
Q 3097 2219 3097 2272 
Q 3097 2653 2873 2875 
Q 2650 3097 2266 3097 
Q 1838 3097 1509 2826 
Q 1181 2556 1013 2059 
L 3078 2063 
z
M 3578 1613 
L 903 1613 
Q 884 1494 878 1425 
Q 872 1356 872 1306 
Q 872 872 1139 634 
Q 1406 397 1894 397 
Q 2269 397 2603 481 
Q 2938 566 3225 728 
L 3116 159 
Q 2806 34 2476 -28 
Q 2147 -91 1806 -91 
Q 1078 -91 686 257 
Q 294 606 294 1247 
Q 294 1794 489 2264 
Q 684 2734 1063 3103 
Q 1306 3334 1642 3459 
Q 1978 3584 2356 3584 
Q 2950 3584 3301 3228 
Q 3653 2872 3653 2272 
Q 3653 2128 3634 1964 
Q 3616 1800 3578 1613 
z
" transform="scale(0.015625)"/>
      <path id="DejaVuSans-Oblique-20" transform="scale(0.015625)"/>
      <path id="DejaVuSans-Oblique-66" d="M 3059 4863 
L 2969 4384 
L 2419 4384 
Q 2106 4384 1964 4261 
Q 1822 4138 1753 3809 
L 1691 3500 
L 2638 3500 
L 2553 3053 
L 1606 3053 
L 1013 0 
L 434 0 
L 1031 3053 
L 481 3053 
L 563 3500 
L 1113 3500 
L 1159 3744 
Q 1278 4363 1576 4613 
Q 1875 4863 2516 4863 
L 3059 4863 
z
" transform="scale(0.015625)"/>
      <path id="DejaVuSans-Oblique-72" d="M 2853 2969 
Q 2766 3016 2653 3041 
Q 2541 3066 2413 3066 
Q 1953 3066 1609 2717 
Q 1266 2369 1153 1784 
L 800 0 
L 225 0 
L 909 3500 
L 1484 3500 
L 1375 2956 
Q 1603 3259 1920 3421 
Q 2238 3584 2597 3584 
Q 2691 3584 2781 3573 
Q 2872 3563 2963 3538 
L 2853 2969 
z
" transform="scale(0.015625)"/>
      <path id="DejaVuSans-Oblique-6f" d="M 1625 -91 
Q 1009 -91 651 289 
Q 294 669 294 1325 
Q 294 1706 417 2101 
Q 541 2497 738 2766 
Q 1047 3184 1428 3384 
Q 1809 3584 2291 3584 
Q 2888 3584 3255 3212 
Q 3622 2841 3622 2241 
Q 3622 1825 3500 1412 
Q 3378 1000 3181 728 
Q 2875 309 2494 109 
Q 2113 -91 1625 -91 
z
M 891 1344 
Q 891 869 1089 633 
Q 1288 397 1691 397 
Q 2269 397 2648 901 
Q 3028 1406 3028 2181 
Q 3028 2634 2825 2865 
Q 2622 3097 2228 3097 
Q 1903 3097 1650 2945 
Q 1397 2794 1197 2484 
Q 1050 2253 970 1956 
Q 891 1659 891 1344 
z
" transform="scale(0.015625)"/>
      <path id="DejaVuSans-Oblique-6d" d="M 5747 2113 
L 5338 0 
L 4763 0 
L 5166 2094 
Q 5191 2228 5203 2325 
Q 5216 2422 5216 2491 
Q 5216 2772 5059 2928 
Q 4903 3084 4622 3084 
Q 4203 3084 3875 2770 
Q 3547 2456 3450 1953 
L 3066 0 
L 2491 0 
L 2900 2094 
Q 2925 2209 2937 2307 
Q 2950 2406 2950 2484 
Q 2950 2769 2794 2926 
Q 2638 3084 2363 3084 
Q 1938 3084 1609 2770 
Q 1281 2456 1184 1953 
L 800 0 
L 225 0 
L 909 3500 
L 1484 3500 
L 1375 2956 
Q 1609 3263 1923 3423 
Q 2238 3584 2597 3584 
Q 2978 3584 3223 3384 
Q 3469 3184 3519 2828 
Q 3781 3197 4126 3390 
Q 4472 3584 4856 3584 
Q 5306 3584 5551 3325 
Q 5797 3066 5797 2591 
Q 5797 2488 5784 2364 
Q 5772 2241 5747 2113 
z
" transform="scale(0.015625)"/>
      <path id="DejaVuSans-Oblique-43" d="M 4447 4306 
L 4319 3641 
Q 4019 3944 3683 4091 
Q 3347 4238 2956 4238 
Q 2422 4238 2017 3981 
Q 1613 3725 1319 3200 
Q 1131 2863 1032 2486 
Q 934 2109 934 1728 
Q 934 1091 1264 756 
Q 1594 422 2222 422 
Q 2656 422 3056 561 
Q 3456 700 3834 978 
L 3688 231 
Q 3316 72 2936 -9 
Q 2556 -91 2175 -91 
Q 1278 -91 773 396 
Q 269 884 269 1753 
Q 269 2309 461 2846 
Q 653 3384 1013 3828 
Q 1394 4300 1883 4525 
Q 2372 4750 3022 4750 
Q 3422 4750 3780 4639 
Q 4138 4528 4447 4306 
z
" transform="scale(0.015625)"/>
      <path id="DejaVuSans-Oblique-42" d="M 1081 4666 
L 2694 4666 
Q 3350 4666 3675 4422 
Q 4000 4178 4000 3688 
Q 4000 3238 3720 2911 
Q 3441 2584 2988 2516 
Q 3375 2428 3569 2181 
Q 3763 1934 3763 1522 
Q 3763 819 3242 409 
Q 2722 0 1819 0 
L 172 0 
L 1081 4666 
z
M 1234 2228 
L 903 519 
L 1919 519 
Q 2491 519 2800 781 
Q 3109 1044 3109 1522 
Q 3109 1891 2904 2059 
Q 2700 2228 2247 2228 
L 1234 2228 
z
M 1606 4147 
L 1331 2741 
L 2272 2741 
Q 2775 2741 3058 2959 
Q 3341 3178 3341 3566 
Q 3341 3869 3150 4008 
Q 2959 4147 2541 4147 
L 1606 4147 
z
" transform="scale(0.015625)"/>
     </defs>
     <use xlink:href="#DejaVuSans-Oblique-44"/>
     <use xlink:href="#DejaVuSans-Oblique-69" transform="translate(77.001953 0)"/>
     <use xlink:href="#DejaVuSans-Oblique-73" transform="translate(104.785156 0)"/>
     <use xlink:href="#DejaVuSans-Oblique-74" transform="translate(156.884766 0)"/>
     <use xlink:href="#DejaVuSans-Oblique-61" transform="translate(196.09375 0)"/>
     <use xlink:href="#DejaVuSans-Oblique-6e" transform="translate(257.373047 0)"/>
     <use xlink:href="#DejaVuSans-Oblique-63" transform="translate(320.751953 0)"/>
     <use xlink:href="#DejaVuSans-Oblique-65" transform="translate(375.732422 0)"/>
     <use xlink:href="#DejaVuSans-Oblique-20" transform="translate(437.255859 0)"/>
     <use xlink:href="#DejaVuSans-Oblique-66" transform="translate(469.042969 0)"/>
     <use xlink:href="#DejaVuSans-Oblique-72" transform="translate(504.248047 0)"/>
     <use xlink:href="#DejaVuSans-Oblique-6f" transform="translate(545.361328 0)"/>
     <use xlink:href="#DejaVuSans-Oblique-6d" transform="translate(606.542969 0)"/>
     <use xlink:href="#DejaVuSans-Oblique-20" transform="translate(703.955078 0)"/>
     <use xlink:href="#DejaVuSans-Oblique-43" transform="translate(735.742188 0)"/>
     <use xlink:href="#DejaVuSans-Oblique-42" transform="translate(805.566406 0)"/>
     <use xlink:href="#DejaVuSans-Oblique-44" transform="translate(874.169922 0)"/>
    </g>
   </g>
   <g id="text_6">
    <!-- Consequence on land use -->
    <g transform="translate(293.022788 707.186173) scale(0.14 -0.14)">
     <defs>
      <path id="DejaVuSans-43" d="M 4122 4306 
L 4122 3641 
Q 3803 3938 3442 4084 
Q 3081 4231 2675 4231 
Q 1875 4231 1450 3742 
Q 1025 3253 1025 2328 
Q 1025 1406 1450 917 
Q 1875 428 2675 428 
Q 3081 428 3442 575 
Q 3803 722 4122 1019 
L 4122 359 
Q 3791 134 3420 21 
Q 3050 -91 2638 -91 
Q 1578 -91 968 557 
Q 359 1206 359 2328 
Q 359 3453 968 4101 
Q 1578 4750 2638 4750 
Q 3056 4750 3426 4639 
Q 3797 4528 4122 4306 
z
" transform="scale(0.015625)"/>
      <path id="DejaVuSans-6f" d="M 1959 3097 
Q 1497 3097 1228 2736 
Q 959 2375 959 1747 
Q 959 1119 1226 758 
Q 1494 397 1959 397 
Q 2419 397 2687 759 
Q 2956 1122 2956 1747 
Q 2956 2369 2687 2733 
Q 2419 3097 1959 3097 
z
M 1959 3584 
Q 2709 3584 3137 3096 
Q 3566 2609 3566 1747 
Q 3566 888 3137 398 
Q 2709 -91 1959 -91 
Q 1206 -91 779 398 
Q 353 888 353 1747 
Q 353 2609 779 3096 
Q 1206 3584 1959 3584 
z
" transform="scale(0.015625)"/>
      <path id="DejaVuSans-6e" d="M 3513 2113 
L 3513 0 
L 2938 0 
L 2938 2094 
Q 2938 2591 2744 2837 
Q 2550 3084 2163 3084 
Q 1697 3084 1428 2787 
Q 1159 2491 1159 1978 
L 1159 0 
L 581 0 
L 581 3500 
L 1159 3500 
L 1159 2956 
Q 1366 3272 1645 3428 
Q 1925 3584 2291 3584 
Q 2894 3584 3203 3211 
Q 3513 2838 3513 2113 
z
" transform="scale(0.015625)"/>
      <path id="DejaVuSans-73" d="M 2834 3397 
L 2834 2853 
Q 2591 2978 2328 3040 
Q 2066 3103 1784 3103 
Q 1356 3103 1142 2972 
Q 928 2841 928 2578 
Q 928 2378 1081 2264 
Q 1234 2150 1697 2047 
L 1894 2003 
Q 2506 1872 2764 1633 
Q 3022 1394 3022 966 
Q 3022 478 2636 193 
Q 2250 -91 1575 -91 
Q 1294 -91 989 -36 
Q 684 19 347 128 
L 347 722 
Q 666 556 975 473 
Q 1284 391 1588 391 
Q 1994 391 2212 530 
Q 2431 669 2431 922 
Q 2431 1156 2273 1281 
Q 2116 1406 1581 1522 
L 1381 1569 
Q 847 1681 609 1914 
Q 372 2147 372 2553 
Q 372 3047 722 3315 
Q 1072 3584 1716 3584 
Q 2034 3584 2315 3537 
Q 2597 3491 2834 3397 
z
" transform="scale(0.015625)"/>
      <path id="DejaVuSans-71" d="M 947 1747 
Q 947 1113 1208 752 
Q 1469 391 1925 391 
Q 2381 391 2643 752 
Q 2906 1113 2906 1747 
Q 2906 2381 2643 2742 
Q 2381 3103 1925 3103 
Q 1469 3103 1208 2742 
Q 947 2381 947 1747 
z
M 2906 525 
Q 2725 213 2448 61 
Q 2172 -91 1784 -91 
Q 1150 -91 751 415 
Q 353 922 353 1747 
Q 353 2572 751 3078 
Q 1150 3584 1784 3584 
Q 2172 3584 2448 3432 
Q 2725 3281 2906 2969 
L 2906 3500 
L 3481 3500 
L 3481 -1331 
L 2906 -1331 
L 2906 525 
z
" transform="scale(0.015625)"/>
      <path id="DejaVuSans-75" d="M 544 1381 
L 544 3500 
L 1119 3500 
L 1119 1403 
Q 1119 906 1312 657 
Q 1506 409 1894 409 
Q 2359 409 2629 706 
Q 2900 1003 2900 1516 
L 2900 3500 
L 3475 3500 
L 3475 0 
L 2900 0 
L 2900 538 
Q 2691 219 2414 64 
Q 2138 -91 1772 -91 
Q 1169 -91 856 284 
Q 544 659 544 1381 
z
M 1991 3584 
L 1991 3584 
z
" transform="scale(0.015625)"/>
      <path id="DejaVuSans-63" d="M 3122 3366 
L 3122 2828 
Q 2878 2963 2633 3030 
Q 2388 3097 2138 3097 
Q 1578 3097 1268 2742 
Q 959 2388 959 1747 
Q 959 1106 1268 751 
Q 1578 397 2138 397 
Q 2388 397 2633 464 
Q 2878 531 3122 666 
L 3122 134 
Q 2881 22 2623 -34 
Q 2366 -91 2075 -91 
Q 1284 -91 818 406 
Q 353 903 353 1747 
Q 353 2603 823 3093 
Q 1294 3584 2113 3584 
Q 2378 3584 2631 3529 
Q 2884 3475 3122 3366 
z
" transform="scale(0.015625)"/>
      <path id="DejaVuSans-6c" d="M 603 4863 
L 1178 4863 
L 1178 0 
L 603 0 
L 603 4863 
z
" transform="scale(0.015625)"/>
      <path id="DejaVuSans-61" d="M 2194 1759 
Q 1497 1759 1228 1600 
Q 959 1441 959 1056 
Q 959 750 1161 570 
Q 1363 391 1709 391 
Q 2188 391 2477 730 
Q 2766 1069 2766 1631 
L 2766 1759 
L 2194 1759 
z
M 3341 1997 
L 3341 0 
L 2766 0 
L 2766 531 
Q 2569 213 2275 61 
Q 1981 -91 1556 -91 
Q 1019 -91 701 211 
Q 384 513 384 1019 
Q 384 1609 779 1909 
Q 1175 2209 1959 2209 
L 2766 2209 
L 2766 2266 
Q 2766 2663 2505 2880 
Q 2244 3097 1772 3097 
Q 1472 3097 1187 3025 
Q 903 2953 641 2809 
L 641 3341 
Q 956 3463 1253 3523 
Q 1550 3584 1831 3584 
Q 2591 3584 2966 3190 
Q 3341 2797 3341 1997 
z
" transform="scale(0.015625)"/>
      <path id="DejaVuSans-64" d="M 2906 2969 
L 2906 4863 
L 3481 4863 
L 3481 0 
L 2906 0 
L 2906 525 
Q 2725 213 2448 61 
Q 2172 -91 1784 -91 
Q 1150 -91 751 415 
Q 353 922 353 1747 
Q 353 2572 751 3078 
Q 1150 3584 1784 3584 
Q 2172 3584 2448 3432 
Q 2725 3281 2906 2969 
z
M 947 1747 
Q 947 1113 1208 752 
Q 1469 391 1925 391 
Q 2381 391 2643 752 
Q 2906 1113 2906 1747 
Q 2906 2381 2643 2742 
Q 2381 3103 1925 3103 
Q 1469 3103 1208 2742 
Q 947 2381 947 1747 
z
" transform="scale(0.015625)"/>
     </defs>
     <use xlink:href="#DejaVuSans-43"/>
     <use xlink:href="#DejaVuSans-6f" transform="translate(69.824219 0)"/>
     <use xlink:href="#DejaVuSans-6e" transform="translate(131.005859 0)"/>
     <use xlink:href="#DejaVuSans-73" transform="translate(194.384766 0)"/>
     <use xlink:href="#DejaVuSans-65" transform="translate(246.484375 0)"/>
     <use xlink:href="#DejaVuSans-71" transform="translate(308.007812 0)"/>
     <use xlink:href="#DejaVuSans-75" transform="translate(371.484375 0)"/>
     <use xlink:href="#DejaVuSans-65" transform="translate(434.863281 0)"/>
     <use xlink:href="#DejaVuSans-6e" transform="translate(496.386719 0)"/>
     <use xlink:href="#DejaVuSans-63" transform="translate(559.765625 0)"/>
     <use xlink:href="#DejaVuSans-65" transform="translate(614.746094 0)"/>
     <use xlink:href="#DejaVuSans-20" transform="translate(676.269531 0)"/>
     <use xlink:href="#DejaVuSans-6f" transform="translate(708.056641 0)"/>
     <use xlink:href="#DejaVuSans-6e" transform="translate(769.238281 0)"/>
     <use xlink:href="#DejaVuSans-20" transform="translate(832.617188 0)"/>
     <use xlink:href="#DejaVuSans-6c" transform="translate(864.404297 0)"/>
     <use xlink:href="#DejaVuSans-61" transform="translate(892.1875 0)"/>
     <use xlink:href="#DejaVuSans-6e" transform="translate(953.466797 0)"/>
     <use xlink:href="#DejaVuSans-64" transform="translate(1016.845703 0)"/>
     <use xlink:href="#DejaVuSans-20" transform="translate(1080.322266 0)"/>
     <use xlink:href="#DejaVuSans-75" transform="translate(1112.109375 0)"/>
     <use xlink:href="#DejaVuSans-73" transform="translate(1175.488281 0)"/>
     <use xlink:href="#DejaVuSans-65" transform="translate(1227.587891 0)"/>
    </g>
   </g>
  </g>
 </g>
 <defs>
  <clipPath id="pdfeeb8e655">
   <rect x="7.2" y="7.2" width="698.4" height="674.986667"/>
  </clipPath>
 </defs>
</svg>
