<?xml version="1.0" encoding="utf-8" standalone="no"?>
<!DOCTYPE svg PUBLIC "-//W3C//DTD SVG 1.1//EN"
  "http://www.w3.org/Graphics/SVG/1.1/DTD/svg11.dtd">
<svg height="576pt" version="1.1" viewBox="0 0 576 576" width="576pt" xmlns="http://www.w3.org/2000/svg" xmlns:xlink="http://www.w3.org/1999/xlink">
 <metadata>
  <rdf:RDF xmlns:cc="http://creativecommons.org/ns#" xmlns:dc="http://purl.org/dc/elements/1.1/" xmlns:rdf="http://www.w3.org/1999/02/22-rdf-syntax-ns#">
   <cc:Work>
    <dc:type rdf:resource="http://purl.org/dc/dcmitype/StillImage"/>
    <dc:date>2022-01-24T01:05:39.127432</dc:date>
    <dc:format>image/svg+xml</dc:format>
    <dc:creator>
     <cc:Agent>
      <dc:title>Matplotlib v3.4.2, https://matplotlib.org/</dc:title>
     </cc:Agent>
    </dc:creator>
   </cc:Work>
  </rdf:RDF>
 </metadata>
 <defs>
  <style type="text/css">*{stroke-linecap:butt;stroke-linejoin:round;}</style>
 </defs>
 <g id="figure_1">
  <g id="patch_1">
   <path d="M 0 576 
L 576 576 
L 576 0 
L 0 0 
z
" style="fill:none;"/>
  </g>
  <g id="axes_1">
   <g id="patch_2">
    <path d="M 72 504 
L 518.4 504 
L 518.4 69.12 
L 72 69.12 
z
" style="fill:none;"/>
   </g>
   <g id="PolyCollection_1">
    <defs>
     <path d="M 162.181818 -289.44 
L 162.181818 -419.025455 
L 157.672727 -423.418182 
L 153.163636 -427.810909 
L 148.654545 -432.203636 
L 144.145455 -436.596364 
L 139.636364 -440.989091 
L 135.127273 -445.381818 
L 130.618182 -449.774545 
L 126.109091 -454.167273 
L 121.6 -458.56 
L 117.090909 -462.952727 
L 112.581818 -467.345455 
L 108.072727 -471.738182 
L 103.563636 -476.130909 
L 99.054545 -480.523636 
L 94.545455 -484.916364 
L 90.036364 -489.309091 
L 85.527273 -493.701818 
L 81.018182 -498.094545 
L 76.509091 -502.487273 
L 72 -506.88 
L 72 -289.44 
L 72 -289.44 
L 76.509091 -289.44 
L 81.018182 -289.44 
L 85.527273 -289.44 
L 90.036364 -289.44 
L 94.545455 -289.44 
L 99.054545 -289.44 
L 103.563636 -289.44 
L 108.072727 -289.44 
L 112.581818 -289.44 
L 117.090909 -289.44 
L 121.6 -289.44 
L 126.109091 -289.44 
L 130.618182 -289.44 
L 135.127273 -289.44 
L 139.636364 -289.44 
L 144.145455 -289.44 
L 148.654545 -289.44 
L 153.163636 -289.44 
L 157.672727 -289.44 
L 162.181818 -289.44 
z
" id="m6f844a1481" style="stroke:#0000ff;stroke-opacity:0.5;"/>
    </defs>
    <g clip-path="url(#pa40c6072c4)">
     <use style="fill:#0000ff;fill-opacity:0.5;stroke:#0000ff;stroke-opacity:0.5;" x="0" xlink:href="#m6f844a1481" y="576"/>
    </g>
   </g>
   <g id="PolyCollection_2">
    <defs>
     <path d="M 162.181818 -158.976 
L 162.181818 -289.44 
L 157.672727 -289.44 
L 153.163636 -289.44 
L 148.654545 -289.44 
L 144.145455 -289.44 
L 139.636364 -289.44 
L 135.127273 -289.44 
L 130.618182 -289.44 
L 126.109091 -289.44 
L 121.6 -289.44 
L 117.090909 -289.44 
L 112.581818 -289.44 
L 108.072727 -289.44 
L 103.563636 -289.44 
L 99.054545 -289.44 
L 94.545455 -289.44 
L 90.036364 -289.44 
L 85.527273 -289.44 
L 81.018182 -289.44 
L 76.509091 -289.44 
L 72 -289.44 
L 72 -158.976 
L 72 -158.976 
L 76.509091 -158.976 
L 81.018182 -158.976 
L 85.527273 -158.976 
L 90.036364 -158.976 
L 94.545455 -158.976 
L 99.054545 -158.976 
L 103.563636 -158.976 
L 108.072727 -158.976 
L 112.581818 -158.976 
L 117.090909 -158.976 
L 121.6 -158.976 
L 126.109091 -158.976 
L 130.618182 -158.976 
L 135.127273 -158.976 
L 139.636364 -158.976 
L 144.145455 -158.976 
L 148.654545 -158.976 
L 153.163636 -158.976 
L 157.672727 -158.976 
L 162.181818 -158.976 
z
" id="m678bc1b0bd" style="stroke:#008000;stroke-opacity:0.5;"/>
    </defs>
    <g clip-path="url(#pa40c6072c4)">
     <use style="fill:#008000;fill-opacity:0.5;stroke:#008000;stroke-opacity:0.5;" x="0" xlink:href="#m678bc1b0bd" y="576"/>
    </g>
   </g>
   <g id="PolyCollection_3">
    <defs>
     <path d="M 72 -72 
L 72 -158.976 
L 76.509091 -158.976 
L 81.018182 -158.976 
L 85.527273 -158.976 
L 90.036364 -158.976 
L 94.545455 -158.976 
L 99.054545 -158.976 
L 103.563636 -158.976 
L 108.072727 -158.976 
L 112.581818 -158.976 
L 117.090909 -158.976 
L 121.6 -158.976 
L 126.109091 -158.976 
L 130.618182 -158.976 
L 135.127273 -158.976 
L 139.636364 -158.976 
L 144.145455 -158.976 
L 148.654545 -158.976 
L 153.163636 -158.976 
L 157.672727 -158.976 
L 162.181818 -158.976 
L 162.181818 -159.854545 
L 162.181818 -159.854545 
L 157.672727 -155.461818 
L 153.163636 -151.069091 
L 148.654545 -146.676364 
L 144.145455 -142.283636 
L 139.636364 -137.890909 
L 135.127273 -133.498182 
L 130.618182 -129.105455 
L 126.109091 -124.712727 
L 121.6 -120.32 
L 117.090909 -115.927273 
L 112.581818 -111.534545 
L 108.072727 -107.141818 
L 103.563636 -102.749091 
L 99.054545 -98.356364 
L 94.545455 -93.963636 
L 90.036364 -89.570909 
L 85.527273 -85.178182 
L 81.018182 -80.785455 
L 76.509091 -76.392727 
L 72 -72 
z
" id="m6c201b0935" style="stroke:#ff0000;stroke-opacity:0.5;"/>
    </defs>
    <g clip-path="url(#pa40c6072c4)">
     <use style="fill:#ff0000;fill-opacity:0.5;stroke:#ff0000;stroke-opacity:0.5;" x="0" xlink:href="#m6c201b0935" y="576"/>
    </g>
   </g>
   <g id="PolyCollection_4">
    <defs>
     <path d="M 162.181818 -419.025455 
L 162.181818 -289.44 
L 166.690909 -289.44 
L 171.2 -289.44 
L 175.709091 -289.44 
L 180.218182 -289.44 
L 184.727273 -289.44 
L 189.236364 -289.44 
L 193.745455 -289.44 
L 198.254545 -289.44 
L 202.763636 -289.44 
L 207.272727 -289.44 
L 211.781818 -289.44 
L 216.290909 -289.44 
L 220.8 -289.44 
L 225.309091 -289.44 
L 229.818182 -289.44 
L 234.327273 -289.44 
L 238.836364 -289.44 
L 243.345455 -289.44 
L 247.854545 -289.44 
L 252.363636 -289.44 
L 256.872727 -289.44 
L 261.381818 -289.44 
L 265.890909 -289.44 
L 270.4 -289.44 
L 274.909091 -289.44 
L 279.418182 -289.44 
L 283.927273 -289.44 
L 288.436364 -289.44 
L 292.945455 -289.44 
L 292.945455 -291.636364 
L 292.945455 -291.636364 
L 288.436364 -296.029091 
L 283.927273 -300.421818 
L 279.418182 -304.814545 
L 274.909091 -309.207273 
L 270.4 -313.6 
L 265.890909 -317.992727 
L 261.381818 -322.385455 
L 256.872727 -326.778182 
L 252.363636 -331.170909 
L 247.854545 -335.563636 
L 243.345455 -339.956364 
L 238.836364 -344.349091 
L 234.327273 -348.741818 
L 229.818182 -353.134545 
L 225.309091 -357.527273 
L 220.8 -361.92 
L 216.290909 -366.312727 
L 211.781818 -370.705455 
L 207.272727 -375.098182 
L 202.763636 -379.490909 
L 198.254545 -383.883636 
L 193.745455 -388.276364 
L 189.236364 -392.669091 
L 184.727273 -397.061818 
L 180.218182 -401.454545 
L 175.709091 -405.847273 
L 171.2 -410.24 
L 166.690909 -414.632727 
L 162.181818 -419.025455 
z
" id="m51dc313337" style="stroke:#ffff00;stroke-opacity:0.5;"/>
    </defs>
    <g clip-path="url(#pa40c6072c4)">
     <use style="fill:#ffff00;fill-opacity:0.5;stroke:#ffff00;stroke-opacity:0.5;" x="0" xlink:href="#m51dc313337" y="576"/>
    </g>
   </g>
   <g id="PolyCollection_5">
    <defs>
     <path d="M 162.181818 -159.854545 
L 162.181818 -289.44 
L 166.690909 -289.44 
L 171.2 -289.44 
L 175.709091 -289.44 
L 180.218182 -289.44 
L 184.727273 -289.44 
L 189.236364 -289.44 
L 193.745455 -289.44 
L 198.254545 -289.44 
L 202.763636 -289.44 
L 207.272727 -289.44 
L 211.781818 -289.44 
L 216.290909 -289.44 
L 220.8 -289.44 
L 225.309091 -289.44 
L 229.818182 -289.44 
L 234.327273 -289.44 
L 238.836364 -289.44 
L 243.345455 -289.44 
L 247.854545 -289.44 
L 252.363636 -289.44 
L 256.872727 -289.44 
L 261.381818 -289.44 
L 265.890909 -289.44 
L 270.4 -289.44 
L 274.909091 -289.44 
L 279.418182 -289.44 
L 283.927273 -289.44 
L 288.436364 -289.44 
L 292.945455 -289.44 
L 292.945455 -287.243636 
L 292.945455 -287.243636 
L 288.436364 -282.850909 
L 283.927273 -278.458182 
L 279.418182 -274.065455 
L 274.909091 -269.672727 
L 270.4 -265.28 
L 265.890909 -260.887273 
L 261.381818 -256.494545 
L 256.872727 -252.101818 
L 252.363636 -247.709091 
L 247.854545 -243.316364 
L 243.345455 -238.923636 
L 238.836364 -234.530909 
L 234.327273 -230.138182 
L 229.818182 -225.745455 
L 225.309091 -221.352727 
L 220.8 -216.96 
L 216.290909 -212.567273 
L 211.781818 -208.174545 
L 207.272727 -203.781818 
L 202.763636 -199.389091 
L 198.254545 -194.996364 
L 193.745455 -190.603636 
L 189.236364 -186.210909 
L 184.727273 -181.818182 
L 180.218182 -177.425455 
L 175.709091 -173.032727 
L 171.2 -168.64 
L 166.690909 -164.247273 
L 162.181818 -159.854545 
z
" id="m6880832bee" style="stroke:#ffa500;stroke-opacity:0.5;"/>
    </defs>
    <g clip-path="url(#pa40c6072c4)">
     <use style="fill:#ffa500;fill-opacity:0.5;stroke:#ffa500;stroke-opacity:0.5;" x="0" xlink:href="#m6880832bee" y="576"/>
    </g>
   </g>
   <g id="matplotlib.axis_1">
    <g id="xtick_1">
     <g id="line2d_1">
      <defs>
       <path d="M 0 0 
L 0 3.5 
" id="m749d770cab" style="stroke:#000000;stroke-width:0.8;"/>
      </defs>
      <g>
       <use style="stroke:#000000;stroke-width:0.8;" x="161.28" xlink:href="#m749d770cab" y="504"/>
      </g>
     </g>
     <g id="text_1">
      <!-- $Quantity_{ceiling}$ -->
      <g transform="translate(128.08 518.6)scale(0.1 -0.1)">
       <defs>
        <path d="M 2309 -84 
Q 2275 -88 2237 -89 
Q 2200 -91 2125 -91 
Q 1250 -91 756 411 
Q 263 913 263 1797 
Q 263 2319 452 2844 
Q 641 3369 978 3788 
Q 1369 4269 1858 4509 
Q 2347 4750 2938 4750 
Q 3794 4750 4287 4245 
Q 4781 3741 4781 2869 
Q 4781 1928 4265 1147 
Q 3750 366 2919 44 
L 3553 -825 
L 2847 -825 
L 2309 -84 
z
M 2919 4238 
Q 2400 4238 2003 3986 
Q 1606 3734 1313 3219 
Q 1125 2891 1026 2522 
Q 928 2153 928 1778 
Q 928 1128 1239 775 
Q 1550 422 2119 422 
Q 2631 422 3032 676 
Q 3434 931 3719 1434 
Q 3909 1772 4009 2142 
Q 4109 2513 4109 2881 
Q 4109 3528 3796 3883 
Q 3484 4238 2919 4238 
z
" id="DejaVuSans-Oblique-51" transform="scale(0.015625)"/>
        <path d="M 428 1388 
L 838 3500 
L 1416 3500 
L 1006 1409 
Q 975 1256 961 1147 
Q 947 1038 947 966 
Q 947 700 1109 554 
Q 1272 409 1569 409 
Q 2031 409 2368 721 
Q 2706 1034 2809 1563 
L 3194 3500 
L 3769 3500 
L 3091 0 
L 2516 0 
L 2631 550 
Q 2388 244 2052 76 
Q 1716 -91 1338 -91 
Q 878 -91 622 161 
Q 366 413 366 863 
Q 366 956 381 1097 
Q 397 1238 428 1388 
z
" id="DejaVuSans-Oblique-75" transform="scale(0.015625)"/>
        <path d="M 3438 1997 
L 3047 0 
L 2472 0 
L 2578 531 
Q 2325 219 2001 64 
Q 1678 -91 1281 -91 
Q 834 -91 548 182 
Q 263 456 263 884 
Q 263 1497 752 1853 
Q 1241 2209 2100 2209 
L 2900 2209 
L 2931 2363 
Q 2938 2388 2941 2417 
Q 2944 2447 2944 2509 
Q 2944 2788 2717 2942 
Q 2491 3097 2081 3097 
Q 1800 3097 1504 3025 
Q 1209 2953 897 2809 
L 997 3341 
Q 1322 3463 1633 3523 
Q 1944 3584 2234 3584 
Q 2853 3584 3176 3315 
Q 3500 3047 3500 2534 
Q 3500 2431 3484 2292 
Q 3469 2153 3438 1997 
z
M 2816 1759 
L 2241 1759 
Q 1534 1759 1195 1570 
Q 856 1381 856 984 
Q 856 709 1029 553 
Q 1203 397 1509 397 
Q 1978 397 2328 733 
Q 2678 1069 2791 1631 
L 2816 1759 
z
" id="DejaVuSans-Oblique-61" transform="scale(0.015625)"/>
        <path d="M 3566 2113 
L 3156 0 
L 2578 0 
L 2988 2091 
Q 3016 2238 3031 2350 
Q 3047 2463 3047 2528 
Q 3047 2791 2881 2937 
Q 2716 3084 2419 3084 
Q 1956 3084 1622 2776 
Q 1288 2469 1184 1941 
L 800 0 
L 225 0 
L 903 3500 
L 1478 3500 
L 1363 2950 
Q 1603 3253 1940 3418 
Q 2278 3584 2650 3584 
Q 3113 3584 3367 3334 
Q 3622 3084 3622 2631 
Q 3622 2519 3608 2391 
Q 3594 2263 3566 2113 
z
" id="DejaVuSans-Oblique-6e" transform="scale(0.015625)"/>
        <path d="M 2706 3500 
L 2619 3053 
L 1472 3053 
L 1100 1153 
Q 1081 1047 1072 975 
Q 1063 903 1063 863 
Q 1063 663 1183 572 
Q 1303 481 1569 481 
L 2150 481 
L 2053 0 
L 1503 0 
Q 991 0 739 200 
Q 488 400 488 806 
Q 488 878 497 964 
Q 506 1050 525 1153 
L 897 3053 
L 409 3053 
L 500 3500 
L 978 3500 
L 1172 4494 
L 1747 4494 
L 1556 3500 
L 2706 3500 
z
" id="DejaVuSans-Oblique-74" transform="scale(0.015625)"/>
        <path d="M 1172 4863 
L 1747 4863 
L 1606 4134 
L 1031 4134 
L 1172 4863 
z
M 909 3500 
L 1484 3500 
L 800 0 
L 225 0 
L 909 3500 
z
" id="DejaVuSans-Oblique-69" transform="scale(0.015625)"/>
        <path d="M 1588 -325 
Q 1188 -997 936 -1164 
Q 684 -1331 294 -1331 
L -159 -1331 
L -63 -850 
L 269 -850 
Q 509 -850 678 -719 
Q 847 -588 1056 -206 
L 1234 128 
L 459 3500 
L 1069 3500 
L 1650 819 
L 3256 3500 
L 3859 3500 
L 1588 -325 
z
" id="DejaVuSans-Oblique-79" transform="scale(0.015625)"/>
        <path d="M 3431 3366 
L 3316 2797 
Q 3109 2947 2876 3022 
Q 2644 3097 2394 3097 
Q 2119 3097 1870 3000 
Q 1622 2903 1453 2725 
Q 1184 2453 1037 2087 
Q 891 1722 891 1331 
Q 891 859 1127 628 
Q 1363 397 1844 397 
Q 2081 397 2348 469 
Q 2616 541 2906 684 
L 2797 116 
Q 2547 13 2283 -39 
Q 2019 -91 1741 -91 
Q 1044 -91 669 257 
Q 294 606 294 1253 
Q 294 1797 489 2255 
Q 684 2713 1069 3078 
Q 1331 3328 1684 3456 
Q 2038 3584 2456 3584 
Q 2700 3584 2940 3529 
Q 3181 3475 3431 3366 
z
" id="DejaVuSans-Oblique-63" transform="scale(0.015625)"/>
        <path d="M 3078 2063 
Q 3088 2113 3092 2166 
Q 3097 2219 3097 2272 
Q 3097 2653 2873 2875 
Q 2650 3097 2266 3097 
Q 1838 3097 1509 2826 
Q 1181 2556 1013 2059 
L 3078 2063 
z
M 3578 1613 
L 903 1613 
Q 884 1494 878 1425 
Q 872 1356 872 1306 
Q 872 872 1139 634 
Q 1406 397 1894 397 
Q 2269 397 2603 481 
Q 2938 566 3225 728 
L 3116 159 
Q 2806 34 2476 -28 
Q 2147 -91 1806 -91 
Q 1078 -91 686 257 
Q 294 606 294 1247 
Q 294 1794 489 2264 
Q 684 2734 1063 3103 
Q 1306 3334 1642 3459 
Q 1978 3584 2356 3584 
Q 2950 3584 3301 3228 
Q 3653 2872 3653 2272 
Q 3653 2128 3634 1964 
Q 3616 1800 3578 1613 
z
" id="DejaVuSans-Oblique-65" transform="scale(0.015625)"/>
        <path d="M 1172 4863 
L 1747 4863 
L 800 0 
L 225 0 
L 1172 4863 
z
" id="DejaVuSans-Oblique-6c" transform="scale(0.015625)"/>
        <path d="M 3816 3500 
L 3219 434 
Q 3047 -456 2561 -893 
Q 2075 -1331 1253 -1331 
Q 950 -1331 690 -1286 
Q 431 -1241 206 -1147 
L 313 -588 
Q 525 -725 762 -790 
Q 1000 -856 1269 -856 
Q 1816 -856 2167 -557 
Q 2519 -259 2631 300 
L 2681 563 
Q 2441 288 2122 144 
Q 1803 0 1434 0 
Q 903 0 598 351 
Q 294 703 294 1319 
Q 294 1803 478 2267 
Q 663 2731 997 3091 
Q 1219 3328 1514 3456 
Q 1809 3584 2131 3584 
Q 2484 3584 2746 3420 
Q 3009 3256 3138 2956 
L 3238 3500 
L 3816 3500 
z
M 2950 2216 
Q 2950 2641 2750 2872 
Q 2550 3103 2181 3103 
Q 1953 3103 1747 3012 
Q 1541 2922 1394 2759 
Q 1156 2491 1023 2127 
Q 891 1763 891 1375 
Q 891 944 1092 712 
Q 1294 481 1672 481 
Q 2219 481 2584 976 
Q 2950 1472 2950 2216 
z
" id="DejaVuSans-Oblique-67" transform="scale(0.015625)"/>
       </defs>
       <use transform="translate(0 0.015625)" xlink:href="#DejaVuSans-Oblique-51"/>
       <use transform="translate(78.710938 0.015625)" xlink:href="#DejaVuSans-Oblique-75"/>
       <use transform="translate(142.089844 0.015625)" xlink:href="#DejaVuSans-Oblique-61"/>
       <use transform="translate(203.369141 0.015625)" xlink:href="#DejaVuSans-Oblique-6e"/>
       <use transform="translate(266.748047 0.015625)" xlink:href="#DejaVuSans-Oblique-74"/>
       <use transform="translate(305.957031 0.015625)" xlink:href="#DejaVuSans-Oblique-69"/>
       <use transform="translate(333.740234 0.015625)" xlink:href="#DejaVuSans-Oblique-74"/>
       <use transform="translate(372.949219 0.015625)" xlink:href="#DejaVuSans-Oblique-79"/>
       <use transform="translate(432.128906 -16.390625)scale(0.7)" xlink:href="#DejaVuSans-Oblique-63"/>
       <use transform="translate(470.615234 -16.390625)scale(0.7)" xlink:href="#DejaVuSans-Oblique-65"/>
       <use transform="translate(513.681641 -16.390625)scale(0.7)" xlink:href="#DejaVuSans-Oblique-69"/>
       <use transform="translate(533.129883 -16.390625)scale(0.7)" xlink:href="#DejaVuSans-Oblique-6c"/>
       <use transform="translate(552.578125 -16.390625)scale(0.7)" xlink:href="#DejaVuSans-Oblique-69"/>
       <use transform="translate(572.026367 -16.390625)scale(0.7)" xlink:href="#DejaVuSans-Oblique-6e"/>
       <use transform="translate(616.391602 -16.390625)scale(0.7)" xlink:href="#DejaVuSans-Oblique-67"/>
      </g>
     </g>
    </g>
    <g id="xtick_2">
     <g id="line2d_2">
      <g>
       <use style="stroke:#000000;stroke-width:0.8;" x="295.2" xlink:href="#m749d770cab" y="504"/>
      </g>
     </g>
     <g id="text_2">
      <!-- $Quantity_{no\ ceiling}$ -->
      <g transform="translate(256.5 518.6)scale(0.1 -0.1)">
       <defs>
        <path d="M 1625 -91 
Q 1009 -91 651 289 
Q 294 669 294 1325 
Q 294 1706 417 2101 
Q 541 2497 738 2766 
Q 1047 3184 1428 3384 
Q 1809 3584 2291 3584 
Q 2888 3584 3255 3212 
Q 3622 2841 3622 2241 
Q 3622 1825 3500 1412 
Q 3378 1000 3181 728 
Q 2875 309 2494 109 
Q 2113 -91 1625 -91 
z
M 891 1344 
Q 891 869 1089 633 
Q 1288 397 1691 397 
Q 2269 397 2648 901 
Q 3028 1406 3028 2181 
Q 3028 2634 2825 2865 
Q 2622 3097 2228 3097 
Q 1903 3097 1650 2945 
Q 1397 2794 1197 2484 
Q 1050 2253 970 1956 
Q 891 1659 891 1344 
z
" id="DejaVuSans-Oblique-6f" transform="scale(0.015625)"/>
       </defs>
       <use transform="translate(0 0.015625)" xlink:href="#DejaVuSans-Oblique-51"/>
       <use transform="translate(78.710938 0.015625)" xlink:href="#DejaVuSans-Oblique-75"/>
       <use transform="translate(142.089844 0.015625)" xlink:href="#DejaVuSans-Oblique-61"/>
       <use transform="translate(203.369141 0.015625)" xlink:href="#DejaVuSans-Oblique-6e"/>
       <use transform="translate(266.748047 0.015625)" xlink:href="#DejaVuSans-Oblique-74"/>
       <use transform="translate(305.957031 0.015625)" xlink:href="#DejaVuSans-Oblique-69"/>
       <use transform="translate(333.740234 0.015625)" xlink:href="#DejaVuSans-Oblique-74"/>
       <use transform="translate(372.949219 0.015625)" xlink:href="#DejaVuSans-Oblique-79"/>
       <use transform="translate(432.128906 -16.390625)scale(0.7)" xlink:href="#DejaVuSans-Oblique-6e"/>
       <use transform="translate(476.494141 -16.390625)scale(0.7)" xlink:href="#DejaVuSans-Oblique-6f"/>
       <use transform="translate(542.050554 -16.390625)scale(0.7)" xlink:href="#DejaVuSans-Oblique-63"/>
       <use transform="translate(580.536882 -16.390625)scale(0.7)" xlink:href="#DejaVuSans-Oblique-65"/>
       <use transform="translate(623.603288 -16.390625)scale(0.7)" xlink:href="#DejaVuSans-Oblique-69"/>
       <use transform="translate(643.051531 -16.390625)scale(0.7)" xlink:href="#DejaVuSans-Oblique-6c"/>
       <use transform="translate(662.499773 -16.390625)scale(0.7)" xlink:href="#DejaVuSans-Oblique-69"/>
       <use transform="translate(681.948015 -16.390625)scale(0.7)" xlink:href="#DejaVuSans-Oblique-6e"/>
       <use transform="translate(726.313249 -16.390625)scale(0.7)" xlink:href="#DejaVuSans-Oblique-67"/>
      </g>
     </g>
    </g>
    <g id="text_3">
     <!-- Quantity -->
     <g transform="translate(273.59375 533.298437)scale(0.1 -0.1)">
      <defs>
       <path d="M 2522 4238 
Q 1834 4238 1429 3725 
Q 1025 3213 1025 2328 
Q 1025 1447 1429 934 
Q 1834 422 2522 422 
Q 3209 422 3611 934 
Q 4013 1447 4013 2328 
Q 4013 3213 3611 3725 
Q 3209 4238 2522 4238 
z
M 3406 84 
L 4238 -825 
L 3475 -825 
L 2784 -78 
Q 2681 -84 2626 -87 
Q 2572 -91 2522 -91 
Q 1538 -91 948 567 
Q 359 1225 359 2328 
Q 359 3434 948 4092 
Q 1538 4750 2522 4750 
Q 3503 4750 4090 4092 
Q 4678 3434 4678 2328 
Q 4678 1516 4351 937 
Q 4025 359 3406 84 
z
" id="DejaVuSans-51" transform="scale(0.015625)"/>
       <path d="M 544 1381 
L 544 3500 
L 1119 3500 
L 1119 1403 
Q 1119 906 1312 657 
Q 1506 409 1894 409 
Q 2359 409 2629 706 
Q 2900 1003 2900 1516 
L 2900 3500 
L 3475 3500 
L 3475 0 
L 2900 0 
L 2900 538 
Q 2691 219 2414 64 
Q 2138 -91 1772 -91 
Q 1169 -91 856 284 
Q 544 659 544 1381 
z
M 1991 3584 
L 1991 3584 
z
" id="DejaVuSans-75" transform="scale(0.015625)"/>
       <path d="M 2194 1759 
Q 1497 1759 1228 1600 
Q 959 1441 959 1056 
Q 959 750 1161 570 
Q 1363 391 1709 391 
Q 2188 391 2477 730 
Q 2766 1069 2766 1631 
L 2766 1759 
L 2194 1759 
z
M 3341 1997 
L 3341 0 
L 2766 0 
L 2766 531 
Q 2569 213 2275 61 
Q 1981 -91 1556 -91 
Q 1019 -91 701 211 
Q 384 513 384 1019 
Q 384 1609 779 1909 
Q 1175 2209 1959 2209 
L 2766 2209 
L 2766 2266 
Q 2766 2663 2505 2880 
Q 2244 3097 1772 3097 
Q 1472 3097 1187 3025 
Q 903 2953 641 2809 
L 641 3341 
Q 956 3463 1253 3523 
Q 1550 3584 1831 3584 
Q 2591 3584 2966 3190 
Q 3341 2797 3341 1997 
z
" id="DejaVuSans-61" transform="scale(0.015625)"/>
       <path d="M 3513 2113 
L 3513 0 
L 2938 0 
L 2938 2094 
Q 2938 2591 2744 2837 
Q 2550 3084 2163 3084 
Q 1697 3084 1428 2787 
Q 1159 2491 1159 1978 
L 1159 0 
L 581 0 
L 581 3500 
L 1159 3500 
L 1159 2956 
Q 1366 3272 1645 3428 
Q 1925 3584 2291 3584 
Q 2894 3584 3203 3211 
Q 3513 2838 3513 2113 
z
" id="DejaVuSans-6e" transform="scale(0.015625)"/>
       <path d="M 1172 4494 
L 1172 3500 
L 2356 3500 
L 2356 3053 
L 1172 3053 
L 1172 1153 
Q 1172 725 1289 603 
Q 1406 481 1766 481 
L 2356 481 
L 2356 0 
L 1766 0 
Q 1100 0 847 248 
Q 594 497 594 1153 
L 594 3053 
L 172 3053 
L 172 3500 
L 594 3500 
L 594 4494 
L 1172 4494 
z
" id="DejaVuSans-74" transform="scale(0.015625)"/>
       <path d="M 603 3500 
L 1178 3500 
L 1178 0 
L 603 0 
L 603 3500 
z
M 603 4863 
L 1178 4863 
L 1178 4134 
L 603 4134 
L 603 4863 
z
" id="DejaVuSans-69" transform="scale(0.015625)"/>
       <path d="M 2059 -325 
Q 1816 -950 1584 -1140 
Q 1353 -1331 966 -1331 
L 506 -1331 
L 506 -850 
L 844 -850 
Q 1081 -850 1212 -737 
Q 1344 -625 1503 -206 
L 1606 56 
L 191 3500 
L 800 3500 
L 1894 763 
L 2988 3500 
L 3597 3500 
L 2059 -325 
z
" id="DejaVuSans-79" transform="scale(0.015625)"/>
      </defs>
      <use xlink:href="#DejaVuSans-51"/>
      <use x="78.710938" xlink:href="#DejaVuSans-75"/>
      <use x="142.089844" xlink:href="#DejaVuSans-61"/>
      <use x="203.369141" xlink:href="#DejaVuSans-6e"/>
      <use x="266.748047" xlink:href="#DejaVuSans-74"/>
      <use x="305.957031" xlink:href="#DejaVuSans-69"/>
      <use x="333.740234" xlink:href="#DejaVuSans-74"/>
      <use x="372.949219" xlink:href="#DejaVuSans-79"/>
     </g>
    </g>
   </g>
   <g id="matplotlib.axis_2">
    <g id="ytick_1">
     <g id="line2d_3">
      <defs>
       <path d="M 0 0 
L -3.5 0 
" id="mb80606a970" style="stroke:#000000;stroke-width:0.8;"/>
      </defs>
      <g>
       <use style="stroke:#000000;stroke-width:0.8;" x="72" xlink:href="#mb80606a970" y="417.024"/>
      </g>
     </g>
     <g id="text_4">
      <!-- $Price_{ceiling}$ -->
      <g transform="translate(17.2 420.824)scale(0.1 -0.1)">
       <defs>
        <path d="M 1081 4666 
L 2541 4666 
Q 3178 4666 3512 4369 
Q 3847 4072 3847 3500 
Q 3847 2731 3353 2303 
Q 2859 1875 1966 1875 
L 1172 1875 
L 806 0 
L 172 0 
L 1081 4666 
z
M 1613 4147 
L 1275 2394 
L 2069 2394 
Q 2606 2394 2893 2669 
Q 3181 2944 3181 3456 
Q 3181 3784 2986 3965 
Q 2791 4147 2438 4147 
L 1613 4147 
z
" id="DejaVuSans-Oblique-50" transform="scale(0.015625)"/>
        <path d="M 2853 2969 
Q 2766 3016 2653 3041 
Q 2541 3066 2413 3066 
Q 1953 3066 1609 2717 
Q 1266 2369 1153 1784 
L 800 0 
L 225 0 
L 909 3500 
L 1484 3500 
L 1375 2956 
Q 1603 3259 1920 3421 
Q 2238 3584 2597 3584 
Q 2691 3584 2781 3573 
Q 2872 3563 2963 3538 
L 2853 2969 
z
" id="DejaVuSans-Oblique-72" transform="scale(0.015625)"/>
       </defs>
       <use transform="translate(0 0.015625)" xlink:href="#DejaVuSans-Oblique-50"/>
       <use transform="translate(60.302734 0.015625)" xlink:href="#DejaVuSans-Oblique-72"/>
       <use transform="translate(101.416016 0.015625)" xlink:href="#DejaVuSans-Oblique-69"/>
       <use transform="translate(129.199219 0.015625)" xlink:href="#DejaVuSans-Oblique-63"/>
       <use transform="translate(184.179688 0.015625)" xlink:href="#DejaVuSans-Oblique-65"/>
       <use transform="translate(245.703125 -16.390625)scale(0.7)" xlink:href="#DejaVuSans-Oblique-63"/>
       <use transform="translate(284.189453 -16.390625)scale(0.7)" xlink:href="#DejaVuSans-Oblique-65"/>
       <use transform="translate(327.255859 -16.390625)scale(0.7)" xlink:href="#DejaVuSans-Oblique-69"/>
       <use transform="translate(346.704102 -16.390625)scale(0.7)" xlink:href="#DejaVuSans-Oblique-6c"/>
       <use transform="translate(366.152344 -16.390625)scale(0.7)" xlink:href="#DejaVuSans-Oblique-69"/>
       <use transform="translate(385.600586 -16.390625)scale(0.7)" xlink:href="#DejaVuSans-Oblique-6e"/>
       <use transform="translate(429.96582 -16.390625)scale(0.7)" xlink:href="#DejaVuSans-Oblique-67"/>
      </g>
     </g>
    </g>
    <g id="ytick_2">
     <g id="line2d_4">
      <g>
       <use style="stroke:#000000;stroke-width:0.8;" x="72" xlink:href="#mb80606a970" y="286.56"/>
      </g>
     </g>
     <g id="text_5">
      <!-- $Price_{no\ ceiling}$ -->
      <g transform="translate(6.2 290.36)scale(0.1 -0.1)">
       <use transform="translate(0 0.015625)" xlink:href="#DejaVuSans-Oblique-50"/>
       <use transform="translate(60.302734 0.015625)" xlink:href="#DejaVuSans-Oblique-72"/>
       <use transform="translate(101.416016 0.015625)" xlink:href="#DejaVuSans-Oblique-69"/>
       <use transform="translate(129.199219 0.015625)" xlink:href="#DejaVuSans-Oblique-63"/>
       <use transform="translate(184.179688 0.015625)" xlink:href="#DejaVuSans-Oblique-65"/>
       <use transform="translate(245.703125 -16.390625)scale(0.7)" xlink:href="#DejaVuSans-Oblique-6e"/>
       <use transform="translate(290.068359 -16.390625)scale(0.7)" xlink:href="#DejaVuSans-Oblique-6f"/>
       <use transform="translate(355.624773 -16.390625)scale(0.7)" xlink:href="#DejaVuSans-Oblique-63"/>
       <use transform="translate(394.111101 -16.390625)scale(0.7)" xlink:href="#DejaVuSans-Oblique-65"/>
       <use transform="translate(437.177507 -16.390625)scale(0.7)" xlink:href="#DejaVuSans-Oblique-69"/>
       <use transform="translate(456.625749 -16.390625)scale(0.7)" xlink:href="#DejaVuSans-Oblique-6c"/>
       <use transform="translate(476.073991 -16.390625)scale(0.7)" xlink:href="#DejaVuSans-Oblique-69"/>
       <use transform="translate(495.522234 -16.390625)scale(0.7)" xlink:href="#DejaVuSans-Oblique-6e"/>
       <use transform="translate(539.887468 -16.390625)scale(0.7)" xlink:href="#DejaVuSans-Oblique-67"/>
      </g>
     </g>
    </g>
    <g id="text_6">
     <!-- Price -->
     <g transform="translate(0.120312 298.757656)rotate(-90)scale(0.1 -0.1)">
      <defs>
       <path d="M 1259 4147 
L 1259 2394 
L 2053 2394 
Q 2494 2394 2734 2622 
Q 2975 2850 2975 3272 
Q 2975 3691 2734 3919 
Q 2494 4147 2053 4147 
L 1259 4147 
z
M 628 4666 
L 2053 4666 
Q 2838 4666 3239 4311 
Q 3641 3956 3641 3272 
Q 3641 2581 3239 2228 
Q 2838 1875 2053 1875 
L 1259 1875 
L 1259 0 
L 628 0 
L 628 4666 
z
" id="DejaVuSans-50" transform="scale(0.015625)"/>
       <path d="M 2631 2963 
Q 2534 3019 2420 3045 
Q 2306 3072 2169 3072 
Q 1681 3072 1420 2755 
Q 1159 2438 1159 1844 
L 1159 0 
L 581 0 
L 581 3500 
L 1159 3500 
L 1159 2956 
Q 1341 3275 1631 3429 
Q 1922 3584 2338 3584 
Q 2397 3584 2469 3576 
Q 2541 3569 2628 3553 
L 2631 2963 
z
" id="DejaVuSans-72" transform="scale(0.015625)"/>
       <path d="M 3122 3366 
L 3122 2828 
Q 2878 2963 2633 3030 
Q 2388 3097 2138 3097 
Q 1578 3097 1268 2742 
Q 959 2388 959 1747 
Q 959 1106 1268 751 
Q 1578 397 2138 397 
Q 2388 397 2633 464 
Q 2878 531 3122 666 
L 3122 134 
Q 2881 22 2623 -34 
Q 2366 -91 2075 -91 
Q 1284 -91 818 406 
Q 353 903 353 1747 
Q 353 2603 823 3093 
Q 1294 3584 2113 3584 
Q 2378 3584 2631 3529 
Q 2884 3475 3122 3366 
z
" id="DejaVuSans-63" transform="scale(0.015625)"/>
       <path d="M 3597 1894 
L 3597 1613 
L 953 1613 
Q 991 1019 1311 708 
Q 1631 397 2203 397 
Q 2534 397 2845 478 
Q 3156 559 3463 722 
L 3463 178 
Q 3153 47 2828 -22 
Q 2503 -91 2169 -91 
Q 1331 -91 842 396 
Q 353 884 353 1716 
Q 353 2575 817 3079 
Q 1281 3584 2069 3584 
Q 2775 3584 3186 3129 
Q 3597 2675 3597 1894 
z
M 3022 2063 
Q 3016 2534 2758 2815 
Q 2500 3097 2075 3097 
Q 1594 3097 1305 2825 
Q 1016 2553 972 2059 
L 3022 2063 
z
" id="DejaVuSans-65" transform="scale(0.015625)"/>
      </defs>
      <use xlink:href="#DejaVuSans-50"/>
      <use x="58.552734" xlink:href="#DejaVuSans-72"/>
      <use x="99.666016" xlink:href="#DejaVuSans-69"/>
      <use x="127.449219" xlink:href="#DejaVuSans-63"/>
      <use x="182.429688" xlink:href="#DejaVuSans-65"/>
     </g>
    </g>
   </g>
   <g id="LineCollection_1">
    <path clip-path="url(#pa40c6072c4)" d="M 72 417.024 
L 429.12 417.024 
" style="fill:none;stroke:#000000;stroke-dasharray:3.7,1.6;stroke-dashoffset:0;"/>
   </g>
   <g id="LineCollection_2">
    <path clip-path="url(#pa40c6072c4)" d="M 72 286.56 
L 295.2 286.56 
" style="fill:none;stroke:#000000;stroke-dasharray:3.7,1.6;stroke-dashoffset:0;"/>
   </g>
   <g id="LineCollection_3">
    <path clip-path="url(#pa40c6072c4)" d="M 161.28 504 
L 161.28 156.096 
" style="fill:none;stroke:#000000;stroke-dasharray:3.7,1.6;stroke-dashoffset:0;"/>
   </g>
   <g id="LineCollection_4">
    <path clip-path="url(#pa40c6072c4)" d="M 295.2 504 
L 295.2 286.56 
" style="fill:none;stroke:#000000;stroke-dasharray:3.7,1.6;stroke-dashoffset:0;"/>
   </g>
   <g id="line2d_5">
    <path clip-path="url(#pa40c6072c4)" d="M 72 504 
L 76.509091 499.607273 
L 81.018182 495.214545 
L 85.527273 490.821818 
L 90.036364 486.429091 
L 94.545455 482.036364 
L 99.054545 477.643636 
L 103.563636 473.250909 
L 108.072727 468.858182 
L 112.581818 464.465455 
L 117.090909 460.072727 
L 121.6 455.68 
L 126.109091 451.287273 
L 130.618182 446.894545 
L 135.127273 442.501818 
L 139.636364 438.109091 
L 144.145455 433.716364 
L 148.654545 429.323636 
L 153.163636 424.930909 
L 157.672727 420.538182 
L 162.181818 416.145455 
L 166.690909 411.752727 
L 171.2 407.36 
L 175.709091 402.967273 
L 180.218182 398.574545 
L 184.727273 394.181818 
L 189.236364 389.789091 
L 193.745455 385.396364 
L 198.254545 381.003636 
L 202.763636 376.610909 
L 207.272727 372.218182 
L 211.781818 367.825455 
L 216.290909 363.432727 
L 220.8 359.04 
L 225.309091 354.647273 
L 229.818182 350.254545 
L 234.327273 345.861818 
L 238.836364 341.469091 
L 243.345455 337.076364 
L 247.854545 332.683636 
L 252.363636 328.290909 
L 256.872727 323.898182 
L 261.381818 319.505455 
L 265.890909 315.112727 
L 270.4 310.72 
L 274.909091 306.327273 
L 279.418182 301.934545 
L 283.927273 297.541818 
L 288.436364 293.149091 
L 292.945455 288.756364 
L 297.454545 284.363636 
L 301.963636 279.970909 
L 306.472727 275.578182 
L 310.981818 271.185455 
L 315.490909 266.792727 
L 320 262.4 
L 324.509091 258.007273 
L 329.018182 253.614545 
L 333.527273 249.221818 
L 338.036364 244.829091 
L 342.545455 240.436364 
L 347.054545 236.043636 
L 351.563636 231.650909 
L 356.072727 227.258182 
L 360.581818 222.865455 
L 365.090909 218.472727 
L 369.6 214.08 
L 374.109091 209.687273 
L 378.618182 205.294545 
L 383.127273 200.901818 
L 387.636364 196.509091 
L 392.145455 192.116364 
L 396.654545 187.723636 
L 401.163636 183.330909 
L 405.672727 178.938182 
L 410.181818 174.545455 
L 414.690909 170.152727 
L 419.2 165.76 
L 423.709091 161.367273 
L 428.218182 156.974545 
L 432.727273 152.581818 
L 437.236364 148.189091 
L 441.745455 143.796364 
L 446.254545 139.403636 
L 450.763636 135.010909 
L 455.272727 130.618182 
L 459.781818 126.225455 
L 464.290909 121.832727 
L 468.8 117.44 
L 473.309091 113.047273 
L 477.818182 108.654545 
L 482.327273 104.261818 
L 486.836364 99.869091 
L 491.345455 95.476364 
L 495.854545 91.083636 
L 500.363636 86.690909 
L 504.872727 82.298182 
L 509.381818 77.905455 
L 513.890909 73.512727 
L 518.4 69.12 
" style="fill:none;stroke:#000000;stroke-linecap:square;stroke-width:1.5;"/>
   </g>
   <g id="line2d_6">
    <path clip-path="url(#pa40c6072c4)" d="M 72 69.12 
L 76.509091 73.512727 
L 81.018182 77.905455 
L 85.527273 82.298182 
L 90.036364 86.690909 
L 94.545455 91.083636 
L 99.054545 95.476364 
L 103.563636 99.869091 
L 108.072727 104.261818 
L 112.581818 108.654545 
L 117.090909 113.047273 
L 121.6 117.44 
L 126.109091 121.832727 
L 130.618182 126.225455 
L 135.127273 130.618182 
L 139.636364 135.010909 
L 144.145455 139.403636 
L 148.654545 143.796364 
L 153.163636 148.189091 
L 157.672727 152.581818 
L 162.181818 156.974545 
L 166.690909 161.367273 
L 171.2 165.76 
L 175.709091 170.152727 
L 180.218182 174.545455 
L 184.727273 178.938182 
L 189.236364 183.330909 
L 193.745455 187.723636 
L 198.254545 192.116364 
L 202.763636 196.509091 
L 207.272727 200.901818 
L 211.781818 205.294545 
L 216.290909 209.687273 
L 220.8 214.08 
L 225.309091 218.472727 
L 229.818182 222.865455 
L 234.327273 227.258182 
L 238.836364 231.650909 
L 243.345455 236.043636 
L 247.854545 240.436364 
L 252.363636 244.829091 
L 256.872727 249.221818 
L 261.381818 253.614545 
L 265.890909 258.007273 
L 270.4 262.4 
L 274.909091 266.792727 
L 279.418182 271.185455 
L 283.927273 275.578182 
L 288.436364 279.970909 
L 292.945455 284.363636 
L 297.454545 288.756364 
L 301.963636 293.149091 
L 306.472727 297.541818 
L 310.981818 301.934545 
L 315.490909 306.327273 
L 320 310.72 
L 324.509091 315.112727 
L 329.018182 319.505455 
L 333.527273 323.898182 
L 338.036364 328.290909 
L 342.545455 332.683636 
L 347.054545 337.076364 
L 351.563636 341.469091 
L 356.072727 345.861818 
L 360.581818 350.254545 
L 365.090909 354.647273 
L 369.6 359.04 
L 374.109091 363.432727 
L 378.618182 367.825455 
L 383.127273 372.218182 
L 387.636364 376.610909 
L 392.145455 381.003636 
L 396.654545 385.396364 
L 401.163636 389.789091 
L 405.672727 394.181818 
L 410.181818 398.574545 
L 414.690909 402.967273 
L 419.2 407.36 
L 423.709091 411.752727 
L 428.218182 416.145455 
L 432.727273 420.538182 
L 437.236364 424.930909 
L 441.745455 429.323636 
L 446.254545 433.716364 
L 450.763636 438.109091 
L 455.272727 442.501818 
L 459.781818 446.894545 
L 464.290909 451.287273 
L 468.8 455.68 
L 473.309091 460.072727 
L 477.818182 464.465455 
L 482.327273 468.858182 
L 486.836364 473.250909 
L 491.345455 477.643636 
L 495.854545 482.036364 
L 500.363636 486.429091 
L 504.872727 490.821818 
L 509.381818 495.214545 
L 513.890909 499.607273 
L 518.4 504 
" style="fill:none;stroke:#000000;stroke-linecap:square;stroke-width:1.5;"/>
   </g>
   <g id="patch_3">
    <path d="M 72 504 
L 72 69.12 
" style="fill:none;stroke:#000000;stroke-linecap:square;stroke-linejoin:miter;stroke-width:0.8;"/>
   </g>
   <g id="patch_4">
    <path d="M 518.4 504 
L 518.4 69.12 
" style="fill:none;stroke:#000000;stroke-linecap:square;stroke-linejoin:miter;stroke-width:0.8;"/>
   </g>
   <g id="patch_5">
    <path d="M 72 504 
L 518.4 504 
" style="fill:none;stroke:#000000;stroke-linecap:square;stroke-linejoin:miter;stroke-width:0.8;"/>
   </g>
   <g id="patch_6">
    <path d="M 72 69.12 
L 518.4 69.12 
" style="fill:none;stroke:#000000;stroke-linecap:square;stroke-linejoin:miter;stroke-width:0.8;"/>
   </g>
   <g id="text_7">
    <!-- Demand -->
    <g transform="translate(138.96 134.352)scale(0.15 -0.15)">
     <defs>
      <path d="M 1259 4147 
L 1259 519 
L 2022 519 
Q 2988 519 3436 956 
Q 3884 1394 3884 2338 
Q 3884 3275 3436 3711 
Q 2988 4147 2022 4147 
L 1259 4147 
z
M 628 4666 
L 1925 4666 
Q 3281 4666 3915 4102 
Q 4550 3538 4550 2338 
Q 4550 1131 3912 565 
Q 3275 0 1925 0 
L 628 0 
L 628 4666 
z
" id="DejaVuSans-44" transform="scale(0.015625)"/>
      <path d="M 3328 2828 
Q 3544 3216 3844 3400 
Q 4144 3584 4550 3584 
Q 5097 3584 5394 3201 
Q 5691 2819 5691 2113 
L 5691 0 
L 5113 0 
L 5113 2094 
Q 5113 2597 4934 2840 
Q 4756 3084 4391 3084 
Q 3944 3084 3684 2787 
Q 3425 2491 3425 1978 
L 3425 0 
L 2847 0 
L 2847 2094 
Q 2847 2600 2669 2842 
Q 2491 3084 2119 3084 
Q 1678 3084 1418 2786 
Q 1159 2488 1159 1978 
L 1159 0 
L 581 0 
L 581 3500 
L 1159 3500 
L 1159 2956 
Q 1356 3278 1631 3431 
Q 1906 3584 2284 3584 
Q 2666 3584 2933 3390 
Q 3200 3197 3328 2828 
z
" id="DejaVuSans-6d" transform="scale(0.015625)"/>
      <path d="M 2906 2969 
L 2906 4863 
L 3481 4863 
L 3481 0 
L 2906 0 
L 2906 525 
Q 2725 213 2448 61 
Q 2172 -91 1784 -91 
Q 1150 -91 751 415 
Q 353 922 353 1747 
Q 353 2572 751 3078 
Q 1150 3584 1784 3584 
Q 2172 3584 2448 3432 
Q 2725 3281 2906 2969 
z
M 947 1747 
Q 947 1113 1208 752 
Q 1469 391 1925 391 
Q 2381 391 2643 752 
Q 2906 1113 2906 1747 
Q 2906 2381 2643 2742 
Q 2381 3103 1925 3103 
Q 1469 3103 1208 2742 
Q 947 2381 947 1747 
z
" id="DejaVuSans-64" transform="scale(0.015625)"/>
     </defs>
     <use xlink:href="#DejaVuSans-44"/>
     <use x="77.001953" xlink:href="#DejaVuSans-65"/>
     <use x="138.525391" xlink:href="#DejaVuSans-6d"/>
     <use x="235.9375" xlink:href="#DejaVuSans-61"/>
     <use x="297.216797" xlink:href="#DejaVuSans-6e"/>
     <use x="360.595703" xlink:href="#DejaVuSans-64"/>
    </g>
   </g>
   <g id="text_8">
    <!-- Supply -->
    <g transform="translate(397.872 134.352)scale(0.15 -0.15)">
     <defs>
      <path d="M 3425 4513 
L 3425 3897 
Q 3066 4069 2747 4153 
Q 2428 4238 2131 4238 
Q 1616 4238 1336 4038 
Q 1056 3838 1056 3469 
Q 1056 3159 1242 3001 
Q 1428 2844 1947 2747 
L 2328 2669 
Q 3034 2534 3370 2195 
Q 3706 1856 3706 1288 
Q 3706 609 3251 259 
Q 2797 -91 1919 -91 
Q 1588 -91 1214 -16 
Q 841 59 441 206 
L 441 856 
Q 825 641 1194 531 
Q 1563 422 1919 422 
Q 2459 422 2753 634 
Q 3047 847 3047 1241 
Q 3047 1584 2836 1778 
Q 2625 1972 2144 2069 
L 1759 2144 
Q 1053 2284 737 2584 
Q 422 2884 422 3419 
Q 422 4038 858 4394 
Q 1294 4750 2059 4750 
Q 2388 4750 2728 4690 
Q 3069 4631 3425 4513 
z
" id="DejaVuSans-53" transform="scale(0.015625)"/>
      <path d="M 1159 525 
L 1159 -1331 
L 581 -1331 
L 581 3500 
L 1159 3500 
L 1159 2969 
Q 1341 3281 1617 3432 
Q 1894 3584 2278 3584 
Q 2916 3584 3314 3078 
Q 3713 2572 3713 1747 
Q 3713 922 3314 415 
Q 2916 -91 2278 -91 
Q 1894 -91 1617 61 
Q 1341 213 1159 525 
z
M 3116 1747 
Q 3116 2381 2855 2742 
Q 2594 3103 2138 3103 
Q 1681 3103 1420 2742 
Q 1159 2381 1159 1747 
Q 1159 1113 1420 752 
Q 1681 391 2138 391 
Q 2594 391 2855 752 
Q 3116 1113 3116 1747 
z
" id="DejaVuSans-70" transform="scale(0.015625)"/>
      <path d="M 603 4863 
L 1178 4863 
L 1178 0 
L 603 0 
L 603 4863 
z
" id="DejaVuSans-6c" transform="scale(0.015625)"/>
     </defs>
     <use xlink:href="#DejaVuSans-53"/>
     <use x="63.476562" xlink:href="#DejaVuSans-75"/>
     <use x="126.855469" xlink:href="#DejaVuSans-70"/>
     <use x="190.332031" xlink:href="#DejaVuSans-70"/>
     <use x="253.808594" xlink:href="#DejaVuSans-6c"/>
     <use x="281.591797" xlink:href="#DejaVuSans-79"/>
    </g>
   </g>
   <g id="text_9">
    <!-- A -->
    <g transform="translate(107.712 221.328)scale(0.15 -0.15)">
     <defs>
      <path d="M 2188 4044 
L 1331 1722 
L 3047 1722 
L 2188 4044 
z
M 1831 4666 
L 2547 4666 
L 4325 0 
L 3669 0 
L 3244 1197 
L 1141 1197 
L 716 0 
L 50 0 
L 1831 4666 
z
" id="DejaVuSans-41" transform="scale(0.015625)"/>
     </defs>
     <use xlink:href="#DejaVuSans-41"/>
    </g>
   </g>
   <g id="text_10">
    <!-- B -->
    <g transform="translate(107.712 351.792)scale(0.15 -0.15)">
     <defs>
      <path d="M 1259 2228 
L 1259 519 
L 2272 519 
Q 2781 519 3026 730 
Q 3272 941 3272 1375 
Q 3272 1813 3026 2020 
Q 2781 2228 2272 2228 
L 1259 2228 
z
M 1259 4147 
L 1259 2741 
L 2194 2741 
Q 2656 2741 2882 2914 
Q 3109 3088 3109 3444 
Q 3109 3797 2882 3972 
Q 2656 4147 2194 4147 
L 1259 4147 
z
M 628 4666 
L 2241 4666 
Q 2963 4666 3353 4366 
Q 3744 4066 3744 3513 
Q 3744 3084 3544 2831 
Q 3344 2578 2956 2516 
Q 3422 2416 3680 2098 
Q 3938 1781 3938 1306 
Q 3938 681 3513 340 
Q 3088 0 2303 0 
L 628 0 
L 628 4666 
z
" id="DejaVuSans-42" transform="scale(0.015625)"/>
     </defs>
     <use xlink:href="#DejaVuSans-42"/>
    </g>
   </g>
   <g id="text_11">
    <!-- C -->
    <g transform="translate(107.712 447.4656)scale(0.15 -0.15)">
     <defs>
      <path d="M 4122 4306 
L 4122 3641 
Q 3803 3938 3442 4084 
Q 3081 4231 2675 4231 
Q 1875 4231 1450 3742 
Q 1025 3253 1025 2328 
Q 1025 1406 1450 917 
Q 1875 428 2675 428 
Q 3081 428 3442 575 
Q 3803 722 4122 1019 
L 4122 359 
Q 3791 134 3420 21 
Q 3050 -91 2638 -91 
Q 1578 -91 968 557 
Q 359 1206 359 2328 
Q 359 3453 968 4101 
Q 1578 4750 2638 4750 
Q 3056 4750 3426 4639 
Q 3797 4528 4122 4306 
z
" id="DejaVuSans-43" transform="scale(0.015625)"/>
     </defs>
     <use xlink:href="#DejaVuSans-43"/>
    </g>
   </g>
   <g id="text_12">
    <!-- D -->
    <g transform="translate(179.136 221.328)scale(0.15 -0.15)">
     <use xlink:href="#DejaVuSans-44"/>
    </g>
   </g>
   <g id="text_13">
    <!-- E -->
    <g transform="translate(179.136 351.792)scale(0.15 -0.15)">
     <defs>
      <path d="M 628 4666 
L 3578 4666 
L 3578 4134 
L 1259 4134 
L 1259 2753 
L 3481 2753 
L 3481 2222 
L 1259 2222 
L 1259 531 
L 3634 531 
L 3634 0 
L 628 0 
L 628 4666 
z
" id="DejaVuSans-45" transform="scale(0.015625)"/>
     </defs>
     <use xlink:href="#DejaVuSans-45"/>
    </g>
   </g>
  </g>
 </g>
 <defs>
  <clipPath id="pa40c6072c4">
   <rect height="434.88" width="446.4" x="72" y="69.12"/>
  </clipPath>
 </defs>
</svg>
