<?xml version="1.0" encoding="utf-8" standalone="no"?>
<!DOCTYPE svg PUBLIC "-//W3C//DTD SVG 1.1//EN"
  "http://www.w3.org/Graphics/SVG/1.1/DTD/svg11.dtd">
<svg height="576pt" version="1.1" viewBox="0 0 576 576" width="576pt" xmlns="http://www.w3.org/2000/svg" xmlns:xlink="http://www.w3.org/1999/xlink">
 <metadata>
  <rdf:RDF xmlns:cc="http://creativecommons.org/ns#" xmlns:dc="http://purl.org/dc/elements/1.1/" xmlns:rdf="http://www.w3.org/1999/02/22-rdf-syntax-ns#">
   <cc:Work>
    <dc:type rdf:resource="http://purl.org/dc/dcmitype/StillImage"/>
    <dc:date>2022-01-30T14:10:12.067336</dc:date>
    <dc:format>image/svg+xml</dc:format>
    <dc:creator>
     <cc:Agent>
      <dc:title>Matplotlib v3.4.2, https://matplotlib.org/</dc:title>
     </cc:Agent>
    </dc:creator>
   </cc:Work>
  </rdf:RDF>
 </metadata>
 <defs>
  <style type="text/css">*{stroke-linecap:butt;stroke-linejoin:round;}</style>
 </defs>
 <g id="figure_1">
  <g id="patch_1">
   <path d="M 0 576 
L 576 576 
L 576 0 
L 0 0 
z
" style="fill:none;"/>
  </g>
  <g id="axes_1">
   <g id="patch_2">
    <path d="M 72 504 
L 518.4 504 
L 518.4 69.12 
L 72 69.12 
z
" style="fill:none;"/>
   </g>
   <g id="matplotlib.axis_1">
    <g id="xtick_1">
     <g id="line2d_1">
      <defs>
       <path d="M 0 0 
L 0 3.5 
" id="mc2bdabeb6b" style="stroke:#000000;stroke-width:0.8;"/>
      </defs>
      <g>
       <use style="stroke:#000000;stroke-width:0.8;" x="72" xlink:href="#mc2bdabeb6b" y="504"/>
      </g>
     </g>
     <g id="text_1">
      <!-- 1970 -->
      <g transform="translate(59.275 518.598438)scale(0.1 -0.1)">
       <defs>
        <path d="M 794 531 
L 1825 531 
L 1825 4091 
L 703 3866 
L 703 4441 
L 1819 4666 
L 2450 4666 
L 2450 531 
L 3481 531 
L 3481 0 
L 794 0 
L 794 531 
z
" id="DejaVuSans-31" transform="scale(0.015625)"/>
        <path d="M 703 97 
L 703 672 
Q 941 559 1184 500 
Q 1428 441 1663 441 
Q 2288 441 2617 861 
Q 2947 1281 2994 2138 
Q 2813 1869 2534 1725 
Q 2256 1581 1919 1581 
Q 1219 1581 811 2004 
Q 403 2428 403 3163 
Q 403 3881 828 4315 
Q 1253 4750 1959 4750 
Q 2769 4750 3195 4129 
Q 3622 3509 3622 2328 
Q 3622 1225 3098 567 
Q 2575 -91 1691 -91 
Q 1453 -91 1209 -44 
Q 966 3 703 97 
z
M 1959 2075 
Q 2384 2075 2632 2365 
Q 2881 2656 2881 3163 
Q 2881 3666 2632 3958 
Q 2384 4250 1959 4250 
Q 1534 4250 1286 3958 
Q 1038 3666 1038 3163 
Q 1038 2656 1286 2365 
Q 1534 2075 1959 2075 
z
" id="DejaVuSans-39" transform="scale(0.015625)"/>
        <path d="M 525 4666 
L 3525 4666 
L 3525 4397 
L 1831 0 
L 1172 0 
L 2766 4134 
L 525 4134 
L 525 4666 
z
" id="DejaVuSans-37" transform="scale(0.015625)"/>
        <path d="M 2034 4250 
Q 1547 4250 1301 3770 
Q 1056 3291 1056 2328 
Q 1056 1369 1301 889 
Q 1547 409 2034 409 
Q 2525 409 2770 889 
Q 3016 1369 3016 2328 
Q 3016 3291 2770 3770 
Q 2525 4250 2034 4250 
z
M 2034 4750 
Q 2819 4750 3233 4129 
Q 3647 3509 3647 2328 
Q 3647 1150 3233 529 
Q 2819 -91 2034 -91 
Q 1250 -91 836 529 
Q 422 1150 422 2328 
Q 422 3509 836 4129 
Q 1250 4750 2034 4750 
z
" id="DejaVuSans-30" transform="scale(0.015625)"/>
       </defs>
       <use xlink:href="#DejaVuSans-31"/>
       <use x="63.623047" xlink:href="#DejaVuSans-39"/>
       <use x="127.246094" xlink:href="#DejaVuSans-37"/>
       <use x="190.869141" xlink:href="#DejaVuSans-30"/>
      </g>
     </g>
    </g>
    <g id="xtick_2">
     <g id="line2d_2">
      <g>
       <use style="stroke:#000000;stroke-width:0.8;" x="115.62215" xlink:href="#mc2bdabeb6b" y="504"/>
      </g>
     </g>
     <g id="text_2">
      <!-- 1975 -->
      <g transform="translate(102.89715 518.598438)scale(0.1 -0.1)">
       <defs>
        <path d="M 691 4666 
L 3169 4666 
L 3169 4134 
L 1269 4134 
L 1269 2991 
Q 1406 3038 1543 3061 
Q 1681 3084 1819 3084 
Q 2600 3084 3056 2656 
Q 3513 2228 3513 1497 
Q 3513 744 3044 326 
Q 2575 -91 1722 -91 
Q 1428 -91 1123 -41 
Q 819 9 494 109 
L 494 744 
Q 775 591 1075 516 
Q 1375 441 1709 441 
Q 2250 441 2565 725 
Q 2881 1009 2881 1497 
Q 2881 1984 2565 2268 
Q 2250 2553 1709 2553 
Q 1456 2553 1204 2497 
Q 953 2441 691 2322 
L 691 4666 
z
" id="DejaVuSans-35" transform="scale(0.015625)"/>
       </defs>
       <use xlink:href="#DejaVuSans-31"/>
       <use x="63.623047" xlink:href="#DejaVuSans-39"/>
       <use x="127.246094" xlink:href="#DejaVuSans-37"/>
       <use x="190.869141" xlink:href="#DejaVuSans-35"/>
      </g>
     </g>
    </g>
    <g id="xtick_3">
     <g id="line2d_3">
      <g>
       <use style="stroke:#000000;stroke-width:0.8;" x="159.2443" xlink:href="#mc2bdabeb6b" y="504"/>
      </g>
     </g>
     <g id="text_3">
      <!-- 1980 -->
      <g transform="translate(146.5193 518.598438)scale(0.1 -0.1)">
       <defs>
        <path d="M 2034 2216 
Q 1584 2216 1326 1975 
Q 1069 1734 1069 1313 
Q 1069 891 1326 650 
Q 1584 409 2034 409 
Q 2484 409 2743 651 
Q 3003 894 3003 1313 
Q 3003 1734 2745 1975 
Q 2488 2216 2034 2216 
z
M 1403 2484 
Q 997 2584 770 2862 
Q 544 3141 544 3541 
Q 544 4100 942 4425 
Q 1341 4750 2034 4750 
Q 2731 4750 3128 4425 
Q 3525 4100 3525 3541 
Q 3525 3141 3298 2862 
Q 3072 2584 2669 2484 
Q 3125 2378 3379 2068 
Q 3634 1759 3634 1313 
Q 3634 634 3220 271 
Q 2806 -91 2034 -91 
Q 1263 -91 848 271 
Q 434 634 434 1313 
Q 434 1759 690 2068 
Q 947 2378 1403 2484 
z
M 1172 3481 
Q 1172 3119 1398 2916 
Q 1625 2713 2034 2713 
Q 2441 2713 2670 2916 
Q 2900 3119 2900 3481 
Q 2900 3844 2670 4047 
Q 2441 4250 2034 4250 
Q 1625 4250 1398 4047 
Q 1172 3844 1172 3481 
z
" id="DejaVuSans-38" transform="scale(0.015625)"/>
       </defs>
       <use xlink:href="#DejaVuSans-31"/>
       <use x="63.623047" xlink:href="#DejaVuSans-39"/>
       <use x="127.246094" xlink:href="#DejaVuSans-38"/>
       <use x="190.869141" xlink:href="#DejaVuSans-30"/>
      </g>
     </g>
    </g>
    <g id="xtick_4">
     <g id="line2d_4">
      <g>
       <use style="stroke:#000000;stroke-width:0.8;" x="202.86645" xlink:href="#mc2bdabeb6b" y="504"/>
      </g>
     </g>
     <g id="text_4">
      <!-- 1985 -->
      <g transform="translate(190.14145 518.598438)scale(0.1 -0.1)">
       <use xlink:href="#DejaVuSans-31"/>
       <use x="63.623047" xlink:href="#DejaVuSans-39"/>
       <use x="127.246094" xlink:href="#DejaVuSans-38"/>
       <use x="190.869141" xlink:href="#DejaVuSans-35"/>
      </g>
     </g>
    </g>
    <g id="xtick_5">
     <g id="line2d_5">
      <g>
       <use style="stroke:#000000;stroke-width:0.8;" x="246.488599" xlink:href="#mc2bdabeb6b" y="504"/>
      </g>
     </g>
     <g id="text_5">
      <!-- 1990 -->
      <g transform="translate(233.763599 518.598438)scale(0.1 -0.1)">
       <use xlink:href="#DejaVuSans-31"/>
       <use x="63.623047" xlink:href="#DejaVuSans-39"/>
       <use x="127.246094" xlink:href="#DejaVuSans-39"/>
       <use x="190.869141" xlink:href="#DejaVuSans-30"/>
      </g>
     </g>
    </g>
    <g id="xtick_6">
     <g id="line2d_6">
      <g>
       <use style="stroke:#000000;stroke-width:0.8;" x="290.110749" xlink:href="#mc2bdabeb6b" y="504"/>
      </g>
     </g>
     <g id="text_6">
      <!-- 1995 -->
      <g transform="translate(277.385749 518.598438)scale(0.1 -0.1)">
       <use xlink:href="#DejaVuSans-31"/>
       <use x="63.623047" xlink:href="#DejaVuSans-39"/>
       <use x="127.246094" xlink:href="#DejaVuSans-39"/>
       <use x="190.869141" xlink:href="#DejaVuSans-35"/>
      </g>
     </g>
    </g>
    <g id="xtick_7">
     <g id="line2d_7">
      <g>
       <use style="stroke:#000000;stroke-width:0.8;" x="333.732899" xlink:href="#mc2bdabeb6b" y="504"/>
      </g>
     </g>
     <g id="text_7">
      <!-- 2000 -->
      <g transform="translate(321.007899 518.598438)scale(0.1 -0.1)">
       <defs>
        <path d="M 1228 531 
L 3431 531 
L 3431 0 
L 469 0 
L 469 531 
Q 828 903 1448 1529 
Q 2069 2156 2228 2338 
Q 2531 2678 2651 2914 
Q 2772 3150 2772 3378 
Q 2772 3750 2511 3984 
Q 2250 4219 1831 4219 
Q 1534 4219 1204 4116 
Q 875 4013 500 3803 
L 500 4441 
Q 881 4594 1212 4672 
Q 1544 4750 1819 4750 
Q 2544 4750 2975 4387 
Q 3406 4025 3406 3419 
Q 3406 3131 3298 2873 
Q 3191 2616 2906 2266 
Q 2828 2175 2409 1742 
Q 1991 1309 1228 531 
z
" id="DejaVuSans-32" transform="scale(0.015625)"/>
       </defs>
       <use xlink:href="#DejaVuSans-32"/>
       <use x="63.623047" xlink:href="#DejaVuSans-30"/>
       <use x="127.246094" xlink:href="#DejaVuSans-30"/>
       <use x="190.869141" xlink:href="#DejaVuSans-30"/>
      </g>
     </g>
    </g>
    <g id="xtick_8">
     <g id="line2d_8">
      <g>
       <use style="stroke:#000000;stroke-width:0.8;" x="377.355049" xlink:href="#mc2bdabeb6b" y="504"/>
      </g>
     </g>
     <g id="text_8">
      <!-- 2005 -->
      <g transform="translate(364.630049 518.598438)scale(0.1 -0.1)">
       <use xlink:href="#DejaVuSans-32"/>
       <use x="63.623047" xlink:href="#DejaVuSans-30"/>
       <use x="127.246094" xlink:href="#DejaVuSans-30"/>
       <use x="190.869141" xlink:href="#DejaVuSans-35"/>
      </g>
     </g>
    </g>
    <g id="xtick_9">
     <g id="line2d_9">
      <g>
       <use style="stroke:#000000;stroke-width:0.8;" x="420.977199" xlink:href="#mc2bdabeb6b" y="504"/>
      </g>
     </g>
     <g id="text_9">
      <!-- 2010 -->
      <g transform="translate(408.252199 518.598438)scale(0.1 -0.1)">
       <use xlink:href="#DejaVuSans-32"/>
       <use x="63.623047" xlink:href="#DejaVuSans-30"/>
       <use x="127.246094" xlink:href="#DejaVuSans-31"/>
       <use x="190.869141" xlink:href="#DejaVuSans-30"/>
      </g>
     </g>
    </g>
    <g id="xtick_10">
     <g id="line2d_10">
      <g>
       <use style="stroke:#000000;stroke-width:0.8;" x="464.599349" xlink:href="#mc2bdabeb6b" y="504"/>
      </g>
     </g>
     <g id="text_10">
      <!-- 2015 -->
      <g transform="translate(451.874349 518.598438)scale(0.1 -0.1)">
       <use xlink:href="#DejaVuSans-32"/>
       <use x="63.623047" xlink:href="#DejaVuSans-30"/>
       <use x="127.246094" xlink:href="#DejaVuSans-31"/>
       <use x="190.869141" xlink:href="#DejaVuSans-35"/>
      </g>
     </g>
    </g>
    <g id="xtick_11">
     <g id="line2d_11">
      <g>
       <use style="stroke:#000000;stroke-width:0.8;" x="508.221498" xlink:href="#mc2bdabeb6b" y="504"/>
      </g>
     </g>
     <g id="text_11">
      <!-- 2020 -->
      <g transform="translate(495.496498 518.598438)scale(0.1 -0.1)">
       <use xlink:href="#DejaVuSans-32"/>
       <use x="63.623047" xlink:href="#DejaVuSans-30"/>
       <use x="127.246094" xlink:href="#DejaVuSans-32"/>
       <use x="190.869141" xlink:href="#DejaVuSans-30"/>
      </g>
     </g>
    </g>
   </g>
   <g id="matplotlib.axis_2">
    <g id="ytick_1">
     <g id="line2d_12">
      <defs>
       <path d="M 0 0 
L -3.5 0 
" id="m409945e06a" style="stroke:#000000;stroke-width:0.8;"/>
      </defs>
      <g>
       <use style="stroke:#000000;stroke-width:0.8;" x="72" xlink:href="#m409945e06a" y="476.996029"/>
      </g>
     </g>
     <g id="text_12">
      <!-- 500 -->
      <g transform="translate(45.9125 480.795248)scale(0.1 -0.1)">
       <use xlink:href="#DejaVuSans-35"/>
       <use x="63.623047" xlink:href="#DejaVuSans-30"/>
       <use x="127.246094" xlink:href="#DejaVuSans-30"/>
      </g>
     </g>
    </g>
    <g id="ytick_2">
     <g id="line2d_13">
      <g>
       <use style="stroke:#000000;stroke-width:0.8;" x="72" xlink:href="#m409945e06a" y="443.241065"/>
      </g>
     </g>
     <g id="text_13">
      <!-- 1000 -->
      <g transform="translate(39.55 447.040284)scale(0.1 -0.1)">
       <use xlink:href="#DejaVuSans-31"/>
       <use x="63.623047" xlink:href="#DejaVuSans-30"/>
       <use x="127.246094" xlink:href="#DejaVuSans-30"/>
       <use x="190.869141" xlink:href="#DejaVuSans-30"/>
      </g>
     </g>
    </g>
    <g id="ytick_3">
     <g id="line2d_14">
      <g>
       <use style="stroke:#000000;stroke-width:0.8;" x="72" xlink:href="#m409945e06a" y="409.486102"/>
      </g>
     </g>
     <g id="text_14">
      <!-- 1500 -->
      <g transform="translate(39.55 413.28532)scale(0.1 -0.1)">
       <use xlink:href="#DejaVuSans-31"/>
       <use x="63.623047" xlink:href="#DejaVuSans-35"/>
       <use x="127.246094" xlink:href="#DejaVuSans-30"/>
       <use x="190.869141" xlink:href="#DejaVuSans-30"/>
      </g>
     </g>
    </g>
    <g id="ytick_4">
     <g id="line2d_15">
      <g>
       <use style="stroke:#000000;stroke-width:0.8;" x="72" xlink:href="#m409945e06a" y="375.731138"/>
      </g>
     </g>
     <g id="text_15">
      <!-- 2000 -->
      <g transform="translate(39.55 379.530357)scale(0.1 -0.1)">
       <use xlink:href="#DejaVuSans-32"/>
       <use x="63.623047" xlink:href="#DejaVuSans-30"/>
       <use x="127.246094" xlink:href="#DejaVuSans-30"/>
       <use x="190.869141" xlink:href="#DejaVuSans-30"/>
      </g>
     </g>
    </g>
    <g id="ytick_5">
     <g id="line2d_16">
      <g>
       <use style="stroke:#000000;stroke-width:0.8;" x="72" xlink:href="#m409945e06a" y="341.976174"/>
      </g>
     </g>
     <g id="text_16">
      <!-- 2500 -->
      <g transform="translate(39.55 345.775393)scale(0.1 -0.1)">
       <use xlink:href="#DejaVuSans-32"/>
       <use x="63.623047" xlink:href="#DejaVuSans-35"/>
       <use x="127.246094" xlink:href="#DejaVuSans-30"/>
       <use x="190.869141" xlink:href="#DejaVuSans-30"/>
      </g>
     </g>
    </g>
    <g id="ytick_6">
     <g id="line2d_17">
      <g>
       <use style="stroke:#000000;stroke-width:0.8;" x="72" xlink:href="#m409945e06a" y="308.22121"/>
      </g>
     </g>
     <g id="text_17">
      <!-- 3000 -->
      <g transform="translate(39.55 312.020429)scale(0.1 -0.1)">
       <defs>
        <path d="M 2597 2516 
Q 3050 2419 3304 2112 
Q 3559 1806 3559 1356 
Q 3559 666 3084 287 
Q 2609 -91 1734 -91 
Q 1441 -91 1130 -33 
Q 819 25 488 141 
L 488 750 
Q 750 597 1062 519 
Q 1375 441 1716 441 
Q 2309 441 2620 675 
Q 2931 909 2931 1356 
Q 2931 1769 2642 2001 
Q 2353 2234 1838 2234 
L 1294 2234 
L 1294 2753 
L 1863 2753 
Q 2328 2753 2575 2939 
Q 2822 3125 2822 3475 
Q 2822 3834 2567 4026 
Q 2313 4219 1838 4219 
Q 1578 4219 1281 4162 
Q 984 4106 628 3988 
L 628 4550 
Q 988 4650 1302 4700 
Q 1616 4750 1894 4750 
Q 2613 4750 3031 4423 
Q 3450 4097 3450 3541 
Q 3450 3153 3228 2886 
Q 3006 2619 2597 2516 
z
" id="DejaVuSans-33" transform="scale(0.015625)"/>
       </defs>
       <use xlink:href="#DejaVuSans-33"/>
       <use x="63.623047" xlink:href="#DejaVuSans-30"/>
       <use x="127.246094" xlink:href="#DejaVuSans-30"/>
       <use x="190.869141" xlink:href="#DejaVuSans-30"/>
      </g>
     </g>
    </g>
    <g id="ytick_7">
     <g id="line2d_18">
      <g>
       <use style="stroke:#000000;stroke-width:0.8;" x="72" xlink:href="#m409945e06a" y="274.466247"/>
      </g>
     </g>
     <g id="text_18">
      <!-- 3500 -->
      <g transform="translate(39.55 278.265465)scale(0.1 -0.1)">
       <use xlink:href="#DejaVuSans-33"/>
       <use x="63.623047" xlink:href="#DejaVuSans-35"/>
       <use x="127.246094" xlink:href="#DejaVuSans-30"/>
       <use x="190.869141" xlink:href="#DejaVuSans-30"/>
      </g>
     </g>
    </g>
    <g id="ytick_8">
     <g id="line2d_19">
      <g>
       <use style="stroke:#000000;stroke-width:0.8;" x="72" xlink:href="#m409945e06a" y="240.711283"/>
      </g>
     </g>
     <g id="text_19">
      <!-- 4000 -->
      <g transform="translate(39.55 244.510502)scale(0.1 -0.1)">
       <defs>
        <path d="M 2419 4116 
L 825 1625 
L 2419 1625 
L 2419 4116 
z
M 2253 4666 
L 3047 4666 
L 3047 1625 
L 3713 1625 
L 3713 1100 
L 3047 1100 
L 3047 0 
L 2419 0 
L 2419 1100 
L 313 1100 
L 313 1709 
L 2253 4666 
z
" id="DejaVuSans-34" transform="scale(0.015625)"/>
       </defs>
       <use xlink:href="#DejaVuSans-34"/>
       <use x="63.623047" xlink:href="#DejaVuSans-30"/>
       <use x="127.246094" xlink:href="#DejaVuSans-30"/>
       <use x="190.869141" xlink:href="#DejaVuSans-30"/>
      </g>
     </g>
    </g>
    <g id="ytick_9">
     <g id="line2d_20">
      <g>
       <use style="stroke:#000000;stroke-width:0.8;" x="72" xlink:href="#m409945e06a" y="206.956319"/>
      </g>
     </g>
     <g id="text_20">
      <!-- 4500 -->
      <g transform="translate(39.55 210.755538)scale(0.1 -0.1)">
       <use xlink:href="#DejaVuSans-34"/>
       <use x="63.623047" xlink:href="#DejaVuSans-35"/>
       <use x="127.246094" xlink:href="#DejaVuSans-30"/>
       <use x="190.869141" xlink:href="#DejaVuSans-30"/>
      </g>
     </g>
    </g>
    <g id="ytick_10">
     <g id="line2d_21">
      <g>
       <use style="stroke:#000000;stroke-width:0.8;" x="72" xlink:href="#m409945e06a" y="173.201356"/>
      </g>
     </g>
     <g id="text_21">
      <!-- 5000 -->
      <g transform="translate(39.55 177.000574)scale(0.1 -0.1)">
       <use xlink:href="#DejaVuSans-35"/>
       <use x="63.623047" xlink:href="#DejaVuSans-30"/>
       <use x="127.246094" xlink:href="#DejaVuSans-30"/>
       <use x="190.869141" xlink:href="#DejaVuSans-30"/>
      </g>
     </g>
    </g>
    <g id="ytick_11">
     <g id="line2d_22">
      <g>
       <use style="stroke:#000000;stroke-width:0.8;" x="72" xlink:href="#m409945e06a" y="139.446392"/>
      </g>
     </g>
     <g id="text_22">
      <!-- 5500 -->
      <g transform="translate(39.55 143.245611)scale(0.1 -0.1)">
       <use xlink:href="#DejaVuSans-35"/>
       <use x="63.623047" xlink:href="#DejaVuSans-35"/>
       <use x="127.246094" xlink:href="#DejaVuSans-30"/>
       <use x="190.869141" xlink:href="#DejaVuSans-30"/>
      </g>
     </g>
    </g>
    <g id="ytick_12">
     <g id="line2d_23">
      <g>
       <use style="stroke:#000000;stroke-width:0.8;" x="72" xlink:href="#m409945e06a" y="105.691428"/>
      </g>
     </g>
     <g id="text_23">
      <!-- 6000 -->
      <g transform="translate(39.55 109.490647)scale(0.1 -0.1)">
       <defs>
        <path d="M 2113 2584 
Q 1688 2584 1439 2293 
Q 1191 2003 1191 1497 
Q 1191 994 1439 701 
Q 1688 409 2113 409 
Q 2538 409 2786 701 
Q 3034 994 3034 1497 
Q 3034 2003 2786 2293 
Q 2538 2584 2113 2584 
z
M 3366 4563 
L 3366 3988 
Q 3128 4100 2886 4159 
Q 2644 4219 2406 4219 
Q 1781 4219 1451 3797 
Q 1122 3375 1075 2522 
Q 1259 2794 1537 2939 
Q 1816 3084 2150 3084 
Q 2853 3084 3261 2657 
Q 3669 2231 3669 1497 
Q 3669 778 3244 343 
Q 2819 -91 2113 -91 
Q 1303 -91 875 529 
Q 447 1150 447 2328 
Q 447 3434 972 4092 
Q 1497 4750 2381 4750 
Q 2619 4750 2861 4703 
Q 3103 4656 3366 4563 
z
" id="DejaVuSans-36" transform="scale(0.015625)"/>
       </defs>
       <use xlink:href="#DejaVuSans-36"/>
       <use x="63.623047" xlink:href="#DejaVuSans-30"/>
       <use x="127.246094" xlink:href="#DejaVuSans-30"/>
       <use x="190.869141" xlink:href="#DejaVuSans-30"/>
      </g>
     </g>
    </g>
    <g id="ytick_13">
     <g id="line2d_24">
      <g>
       <use style="stroke:#000000;stroke-width:0.8;" x="72" xlink:href="#m409945e06a" y="71.936464"/>
      </g>
     </g>
     <g id="text_24">
      <!-- 6500 -->
      <g transform="translate(39.55 75.735683)scale(0.1 -0.1)">
       <use xlink:href="#DejaVuSans-36"/>
       <use x="63.623047" xlink:href="#DejaVuSans-35"/>
       <use x="127.246094" xlink:href="#DejaVuSans-30"/>
       <use x="190.869141" xlink:href="#DejaVuSans-30"/>
      </g>
     </g>
    </g>
   </g>
   <g id="line2d_25">
    <path clip-path="url(#pe8391ca937)" d="M 72 504 
L 94.538111 501.673367 
L 101.808469 500.563007 
L 106.170684 499.859209 
L 108.351792 499.555141 
L 111.259935 498.967504 
L 114.168078 498.079215 
L 116.349186 497.11918 
L 123.619544 494.034086 
L 125.800651 493.28929 
L 133.07101 491.099318 
L 138.160261 489.92746 
L 141.79544 489.189497 
L 144.703583 488.383205 
L 149.792834 486.504133 
L 151.973941 485.718339 
L 155.609121 484.044257 
L 157.063192 483.326793 
L 159.2443 481.973861 
L 163.606515 479.028843 
L 167.96873 475.892501 
L 170.149837 474.624982 
L 175.966124 471.645799 
L 182.509446 468.656366 
L 184.690554 467.85349 
L 194.869055 463.637536 
L 200.685342 461.77213 
L 202.86645 460.911174 
L 204.320521 460.207376 
L 207.228664 458.68362 
L 213.771987 455.410618 
L 219.588274 452.530513 
L 227.585668 448.376056 
L 234.12899 444.255764 
L 237.037134 442.158037 
L 242.85342 437.802006 
L 245.034528 436.059594 
L 245.761564 435.594951 
L 249.396743 432.465442 
L 251.57785 430.244721 
L 258.121173 424.733916 
L 260.30228 423.247741 
L 262.483388 421.638572 
L 263.937459 420.668287 
L 266.118567 418.983956 
L 269.753746 416.886228 
L 271.207818 416.179014 
L 272.661889 415.526463 
L 275.570033 414.528847 
L 281.386319 412.742021 
L 285.748534 410.862949 
L 289.383713 409.298194 
L 293.745928 407.405457 
L 298.835179 405.734791 
L 306.105537 402.5882 
L 316.284039 396.89632 
L 321.37329 393.199673 
L 323.554397 391.891156 
L 325.735505 390.582639 
L 327.189577 389.749014 
L 329.370684 388.467829 
L 332.278827 386.626338 
L 333.005863 386.014786 
L 335.914007 384.42578 
L 341.003257 382.766389 
L 341.730293 382.429716 
L 342.457329 381.844592 
L 343.184365 380.940476 
L 349.727687 376.154948 
L 354.089902 374.004435 
L 356.27101 372.845188 
L 359.179153 371.497669 
L 360.633225 370.956046 
L 361.360261 370.392458 
L 364.268404 369.143612 
L 367.903583 367.069604 
L 368.630619 366.139529 
L 371.538762 364.202405 
L 373.71987 362.750851 
L 376.628013 360.791228 
L 377.355049 360.212021 
L 378.082085 359.42336 
L 383.898371 355.097966 
L 386.079479 353.517449 
L 387.53355 351.760589 
L 388.987622 350.662293 
L 390.441694 349.357001 
L 392.622801 347.876122 
L 393.349837 347.335331 
L 394.803909 345.696186 
L 395.530945 344.588281 
L 396.985016 343.357575 
L 407.163518 334.71525 
L 410.071661 332.93038 
L 411.525733 332.241525 
L 412.252769 332.502126 
L 412.979805 333.43085 
L 413.70684 333.610558 
L 414.433876 333.366697 
L 416.614984 333.03452 
L 418.069055 332.85211 
L 420.977199 332.449775 
L 421.704235 331.656753 
L 422.43127 330.626275 
L 423.885342 330.412207 
L 428.247557 328.599769 
L 428.974593 328.416048 
L 429.701629 327.775446 
L 430.428664 327.614791 
L 434.790879 325.271197 
L 436.971987 324.411516 
L 437.699023 324.120635 
L 439.153094 324.085365 
L 439.88013 323.957597 
L 441.334202 323.334783 
L 442.788274 322.893512 
L 444.242345 322.290149 
L 447.877524 321.464846 
L 448.60456 321.582368 
L 449.331596 320.913734 
L 450.058632 320.610508 
L 452.239739 320.237321 
L 454.420847 319.871713 
L 456.601954 319.010599 
L 457.32899 318.70862 
L 458.056026 318.929781 
L 460.964169 318.593995 
L 462.418241 318.086294 
L 463.145277 317.823337 
L 463.872313 317.414667 
L 464.599349 317.209268 
L 465.326384 317.135883 
L 466.05342 316.394204 
L 470.415635 313.820697 
L 472.596743 312.895285 
L 473.323779 312.449935 
L 474.050814 312.258079 
L 481.321173 308.153119 
L 482.048208 307.878355 
L 483.50228 306.997914 
L 484.229316 306.779602 
L 484.956352 306.430502 
L 485.683388 305.949822 
L 486.410423 305.671163 
L 489.318567 303.96593 
L 490.772638 302.951903 
L 492.22671 302.055611 
L 495.134853 300.262321 
L 501.678176 294.877089 
L 503.859283 292.813338 
L 504.586319 292.287442 
L 505.313355 291.593339 
L 506.040391 291.162185 
L 508.221498 289.475922 
L 508.948534 289.036849 
L 509.67557 288.848736 
L 511.129642 289.251943 
L 511.856678 289.543405 
L 512.583713 289.584879 
L 514.037785 288.74403 
L 514.764821 288.032424 
L 517.672964 284.42446 
L 518.4 283.651196 
L 518.4 283.651196 
" style="fill:none;stroke:#1f77b4;stroke-linecap:square;stroke-width:1.5;"/>
   </g>
   <g id="line2d_26">
    <path clip-path="url(#pe8391ca937)" d="M 72 504 
L 75.635179 503.895062 
L 76.362215 503.580249 
L 79.997394 503.580249 
L 80.72443 503.405353 
L 82.178502 503.405353 
L 82.905537 503.195478 
L 84.359609 503.195478 
L 85.086645 502.740747 
L 86.540717 502.740747 
L 87.267752 502.390955 
L 88.721824 502.390955 
L 89.44886 501.866267 
L 90.902932 501.866267 
L 91.629967 501.026765 
L 93.084039 501.026765 
L 93.811075 499.557637 
L 95.265147 499.557637 
L 95.992182 498.753114 
L 97.446254 498.753114 
L 98.17329 497.388924 
L 99.627362 497.388924 
L 100.354397 496.724319 
L 101.808469 496.724319 
L 102.535505 495.779879 
L 103.989577 495.779879 
L 104.716612 495.604983 
L 106.170684 495.604983 
L 106.89772 495.395108 
L 110.532899 495.360128 
L 111.259935 495.220212 
L 112.714007 495.220212 
L 113.441042 495.010336 
L 117.076221 494.940378 
L 117.803257 494.520627 
L 119.257329 494.520627 
L 119.984365 494.030917 
L 121.438436 494.030917 
L 122.165472 493.856021 
L 123.619544 493.856021 
L 124.34658 493.506229 
L 125.800651 493.506229 
L 126.527687 493.051499 
L 127.981759 493.051499 
L 128.708795 492.631748 
L 130.162866 492.631748 
L 130.889902 492.351914 
L 132.343974 492.351914 
L 133.07101 492.211997 
L 134.525081 492.211997 
L 135.252117 491.932163 
L 136.706189 491.932163 
L 137.433225 491.372495 
L 138.887296 491.372495 
L 139.614332 490.777848 
L 141.068404 490.777848 
L 141.79544 490.323118 
L 143.249511 490.323118 
L 143.976547 489.3437 
L 145.430619 489.3437 
L 146.157655 487.839593 
L 147.611726 487.839593 
L 148.338762 486.230548 
L 149.792834 486.230548 
L 150.51987 484.936316 
L 151.973941 484.936316 
L 152.700977 482.942499 
L 154.155049 482.942499 
L 154.882085 480.808766 
L 156.336156 480.808766 
L 157.063192 478.814949 
L 158.517264 478.814949 
L 159.2443 477.555697 
L 160.698371 477.555697 
L 161.425407 476.226486 
L 162.879479 476.226486 
L 163.606515 474.827316 
L 167.241694 474.757358 
L 168.695765 474.687399 
L 169.422801 474.687399 
L 170.149837 473.707981 
L 171.603909 473.707981 
L 172.330945 473.113334 
L 173.785016 473.113334 
L 174.512052 473.847898 
L 175.966124 473.847898 
L 176.69316 474.757358 
L 178.147231 474.757358 
L 178.874267 473.183292 
L 180.328339 473.183292 
L 181.055375 472.238853 
L 182.509446 472.238853 
L 183.236482 471.679185 
L 184.690554 471.679185 
L 185.41759 470.52487 
L 186.871661 470.52487 
L 187.598697 469.125701 
L 189.052769 469.125701 
L 189.779805 467.376739 
L 191.233876 467.376739 
L 191.960912 467.026946 
L 193.414984 467.026946 
L 194.14202 466.677154 
L 195.596091 466.677154 
L 196.323127 465.277985 
L 197.777199 465.277985 
L 198.504235 463.529023 
L 199.958306 463.529023 
L 200.685342 462.829438 
L 204.320521 462.829438 
L 205.047557 461.080476 
L 206.501629 461.080476 
L 207.228664 460.031099 
L 208.682736 460.031099 
L 209.409772 458.282137 
L 210.863844 458.282137 
L 211.590879 457.23276 
L 213.044951 457.23276 
L 213.771987 454.784214 
L 215.226059 454.784214 
L 215.953094 452.335667 
L 217.407166 452.335667 
L 218.134202 450.586705 
L 219.588274 450.586705 
L 220.315309 448.837743 
L 221.769381 448.837743 
L 222.496417 446.039404 
L 223.950489 446.039404 
L 224.677524 442.891273 
L 226.131596 442.891273 
L 226.858632 438.872405 
L 228.312704 438.872405 
L 229.039739 435.856521 
L 230.493811 435.856521 
L 231.220847 431.332693 
L 232.674919 431.332693 
L 233.401954 420.777097 
L 234.856026 420.777097 
L 235.583062 415.247975 
L 237.037134 415.247975 
L 237.764169 413.237385 
L 239.218241 413.237385 
L 239.945277 409.718853 
L 241.399349 409.718853 
L 242.126384 406.20032 
L 243.580456 406.20032 
L 244.307492 408.21091 
L 245.761564 408.21091 
L 246.488599 410.421958 
L 247.942671 410.421958 
L 248.669707 411.324017 
L 250.123779 411.324017 
L 250.850814 409.519898 
L 252.304886 409.519898 
L 253.031922 411.02333 
L 254.485993 411.02333 
L 255.213029 412.426534 
L 256.667101 412.426534 
L 257.394137 412.827449 
L 258.848208 412.827449 
L 259.575244 410.923102 
L 261.029316 410.923102 
L 261.756352 411.825161 
L 263.210423 411.825161 
L 263.937459 413.428822 
L 265.391531 413.428822 
L 266.118567 415.734084 
L 267.572638 415.734084 
L 268.299674 415.453798 
L 269.753746 415.453798 
L 270.480782 419.097515 
L 271.934853 419.097515 
L 272.661889 418.630372 
L 274.115961 418.630372 
L 274.842997 417.882943 
L 276.297068 417.882943 
L 277.024104 415.920942 
L 278.478176 415.920942 
L 279.205212 417.696085 
L 280.659283 417.696085 
L 281.386319 416.668371 
L 282.840391 416.668371 
L 283.567427 415.36037 
L 285.021498 415.36037 
L 285.748534 413.772083 
L 287.202606 413.772083 
L 287.929642 414.426084 
L 289.383713 414.426084 
L 290.110749 415.266941 
L 291.564821 415.266941 
L 292.291857 414.239226 
L 293.745928 414.239226 
L 294.472964 413.398369 
L 295.927036 413.398369 
L 296.654072 414.706369 
L 298.108143 414.706369 
L 298.835179 413.30494 
L 302.470358 413.211511 
L 303.197394 409.380938 
L 304.651466 409.380938 
L 305.378502 407.605794 
L 306.832573 407.605794 
L 307.559609 406.204365 
L 309.013681 406.204365 
L 309.740717 404.055507 
L 311.194788 404.055507 
L 311.921824 398.636646 
L 313.375896 398.636646 
L 314.102932 399.477504 
L 315.557003 399.477504 
L 316.284039 396.674645 
L 317.738111 396.674645 
L 318.465147 390.601785 
L 319.919218 390.601785 
L 320.646254 385.369782 
L 322.100326 385.369782 
L 322.827362 385.930354 
L 324.281433 385.930354 
L 325.008469 385.182925 
L 326.462541 385.182925 
L 327.189577 379.857493 
L 328.643648 379.857493 
L 329.370684 372.196346 
L 330.824756 372.196346 
L 331.551792 368.646059 
L 333.005863 368.646059 
L 333.732899 365.002343 
L 335.186971 365.002343 
L 335.914007 357.06091 
L 337.368078 357.06091 
L 338.095114 354.164622 
L 339.549186 354.164622 
L 340.276221 349.493191 
L 341.730293 349.493191 
L 342.457329 350.334049 
L 343.911401 350.334049 
L 344.638436 344.541474 
L 346.092508 344.541474 
L 346.819544 338.562043 
L 348.273616 338.562043 
L 349.000651 342.018902 
L 350.454723 342.018902 
L 351.181759 342.605166 
L 352.635831 330.40806 
L 353.362866 327.968638 
L 354.089902 323.26404 
L 354.816938 315.597287 
L 355.543974 314.029088 
L 356.998046 304.794136 
L 357.725081 303.225936 
L 358.452117 301.135004 
L 359.179153 294.165229 
L 359.906189 295.733428 
L 360.633225 297.998605 
L 362.087296 288.24092 
L 362.814332 289.809119 
L 363.541368 289.286386 
L 364.99544 281.445389 
L 365.722476 282.142367 
L 366.449511 278.134746 
L 367.176547 280.748411 
L 367.903583 276.218057 
L 368.630619 274.824103 
L 369.357655 277.08928 
L 370.084691 276.566546 
L 370.811726 265.937639 
L 371.538762 262.975485 
L 372.265798 258.619375 
L 372.992834 253.217799 
L 373.71987 250.255645 
L 374.446906 250.778378 
L 375.173941 248.86169 
L 375.900977 249.210179 
L 376.628013 251.126867 
L 378.082085 251.55047 
L 378.809121 249.423988 
L 379.536156 245.708265 
L 380.263192 242.86257 
L 380.990228 240.736199 
L 381.717264 237.259274 
L 382.4443 236.147312 
L 383.898371 237.123519 
L 384.625407 236.309168 
L 385.352443 234.807858 
L 386.079479 235.219613 
L 386.806515 234.769543 
L 387.53355 232.531544 
L 388.260586 226.484021 
L 389.714658 221.071483 
L 390.441694 216.902807 
L 391.16873 214.435926 
L 391.895765 213.227901 
L 393.349837 209.944339 
L 394.076873 206.198768 
L 394.803909 206.304007 
L 395.530945 205.43742 
L 396.25798 203.068498 
L 396.985016 196.857176 
L 399.166124 185.750505 
L 399.89316 183.865121 
L 400.620195 183.44098 
L 401.347231 184.204157 
L 402.074267 184.375737 
L 402.801303 184.885069 
L 403.528339 190.761638 
L 404.255375 193.512263 
L 404.98241 195.820095 
L 405.709446 195.298067 
L 406.436482 193.369798 
L 407.163518 197.566789 
L 407.890554 200.986516 
L 408.61759 207.450396 
L 409.344625 215.08549 
L 410.071661 221.083593 
L 410.798697 229.230808 
L 411.525733 233.524237 
L 412.252769 239.932067 
L 412.979805 243.060864 
L 413.70684 244.722983 
L 414.433876 242.312018 
L 415.160912 238.604889 
L 415.887948 235.923819 
L 416.614984 230.993966 
L 417.34202 228.2346 
L 418.796091 224.101571 
L 419.523127 223.134884 
L 420.250163 221.248068 
L 420.977199 222.303344 
L 421.704235 221.582087 
L 422.43127 221.598848 
L 423.158306 217.895803 
L 424.612378 215.035514 
L 425.339414 212.04101 
L 426.06645 212.057629 
L 426.793485 212.824807 
L 428.247557 219.643598 
L 428.974593 220.178268 
L 429.701629 222.593894 
L 431.1557 225.438778 
L 431.882736 221.013046 
L 432.609772 222.301993 
L 433.336808 221.814219 
L 434.063844 218.174966 
L 434.790879 217.99893 
L 435.517915 218.729988 
L 436.244951 221.951565 
L 436.971987 221.807367 
L 437.699023 223.028747 
L 438.426059 224.991054 
L 439.153094 225.768544 
L 439.88013 224.924144 
L 440.607166 221.640066 
L 441.334202 220.707652 
L 442.061238 217.859162 
L 442.788274 216.736104 
L 443.515309 216.389591 
L 444.242345 217.435512 
L 444.969381 219.512051 
L 445.696417 219.274821 
L 446.423453 219.936922 
L 447.150489 221.87849 
L 447.877524 221.935561 
L 448.60456 220.214874 
L 449.331596 217.366204 
L 450.058632 215.81883 
L 450.785668 213.371726 
L 451.512704 210.034154 
L 452.239739 207.63997 
L 452.966775 207.440974 
L 453.693811 208.680117 
L 454.420847 207.003936 
L 455.147883 204.215265 
L 455.874919 203.85087 
L 457.32899 201.517622 
L 458.056026 194.637057 
L 458.783062 191.28721 
L 459.510098 188.529676 
L 460.237134 183.99673 
L 460.964169 180.168082 
L 461.691205 179.813364 
L 462.418241 180.301626 
L 463.145277 181.41323 
L 463.872313 180.620729 
L 464.599349 182.350649 
L 465.326384 182.071348 
L 466.05342 180.848166 
L 466.780456 177.941702 
L 467.507492 174.344643 
L 468.234528 171.779422 
L 468.961564 166.028166 
L 469.688599 162.873078 
L 470.415635 162.157656 
L 471.142671 161.682948 
L 471.869707 158.997913 
L 472.596743 157.79738 
L 473.323779 156.860321 
L 474.050814 156.703385 
L 474.77785 153.066103 
L 475.504886 151.729416 
L 476.231922 147.545392 
L 477.685993 140.217361 
L 478.413029 140.186385 
L 479.140065 140.75258 
L 479.867101 141.974452 
L 480.594137 140.241338 
L 481.321173 139.575159 
L 482.048208 140.018278 
L 482.775244 139.234738 
L 483.50228 140.028977 
L 484.229316 134.163802 
L 484.956352 131.903902 
L 485.683388 128.666117 
L 486.410423 123.695873 
L 487.137459 121.940699 
L 487.864495 123.392933 
L 488.591531 123.053094 
L 489.318567 124.154831 
L 490.045603 122.643764 
L 490.772638 123.997949 
L 491.499674 122.986153 
L 492.22671 125.326907 
L 492.953746 121.644413 
L 493.680782 120.053473 
L 494.407818 117.432947 
L 495.134853 112.555631 
L 495.861889 111.331549 
L 496.588925 112.095348 
L 497.315961 112.513924 
L 498.042997 114.213802 
L 498.770033 115.066464 
L 499.497068 117.50325 
L 500.95114 119.588262 
L 501.678176 116.754255 
L 502.405212 116.217265 
L 503.132248 114.515666 
L 503.859283 110.090659 
L 504.586319 108.802323 
L 505.313355 108.509494 
L 506.040391 109.571778 
L 506.767427 110.989267 
L 507.494463 111.513102 
L 508.221498 111.258851 
L 508.948534 113.551199 
L 509.67557 109.977567 
L 510.402606 114.090526 
L 511.129642 112.91588 
L 511.856678 106.424045 
L 512.583713 102.814973 
L 514.764821 89.650469 
L 515.491857 84.408299 
L 516.218893 80.381845 
L 516.945928 79.395413 
L 517.672964 77.09602 
L 518.4 69.12 
L 518.4 69.12 
" style="fill:none;stroke:#ff7f0e;stroke-linecap:square;stroke-width:1.5;"/>
   </g>
   <g id="patch_3">
    <path d="M 72 504 
L 72 69.12 
" style="fill:none;stroke:#000000;stroke-linecap:square;stroke-linejoin:miter;stroke-width:0.8;"/>
   </g>
   <g id="patch_4">
    <path d="M 518.4 504 
L 518.4 69.12 
" style="fill:none;stroke:#000000;stroke-linecap:square;stroke-linejoin:miter;stroke-width:0.8;"/>
   </g>
   <g id="patch_5">
    <path d="M 72 504 
L 518.4 504 
" style="fill:none;stroke:#000000;stroke-linecap:square;stroke-linejoin:miter;stroke-width:0.8;"/>
   </g>
   <g id="patch_6">
    <path d="M 72 69.12 
L 518.4 69.12 
" style="fill:none;stroke:#000000;stroke-linecap:square;stroke-linejoin:miter;stroke-width:0.8;"/>
   </g>
   <g id="text_25">
    <!-- UK average house prices and weekly earnings (12-month rolling average), indexed to Jan 1970 -->
    <g transform="translate(9.845625 63.12)scale(0.12 -0.12)">
     <defs>
      <path d="M 556 4666 
L 1191 4666 
L 1191 1831 
Q 1191 1081 1462 751 
Q 1734 422 2344 422 
Q 2950 422 3222 751 
Q 3494 1081 3494 1831 
L 3494 4666 
L 4128 4666 
L 4128 1753 
Q 4128 841 3676 375 
Q 3225 -91 2344 -91 
Q 1459 -91 1007 375 
Q 556 841 556 1753 
L 556 4666 
z
" id="DejaVuSans-55" transform="scale(0.015625)"/>
      <path d="M 628 4666 
L 1259 4666 
L 1259 2694 
L 3353 4666 
L 4166 4666 
L 1850 2491 
L 4331 0 
L 3500 0 
L 1259 2247 
L 1259 0 
L 628 0 
L 628 4666 
z
" id="DejaVuSans-4b" transform="scale(0.015625)"/>
      <path id="DejaVuSans-20" transform="scale(0.015625)"/>
      <path d="M 2194 1759 
Q 1497 1759 1228 1600 
Q 959 1441 959 1056 
Q 959 750 1161 570 
Q 1363 391 1709 391 
Q 2188 391 2477 730 
Q 2766 1069 2766 1631 
L 2766 1759 
L 2194 1759 
z
M 3341 1997 
L 3341 0 
L 2766 0 
L 2766 531 
Q 2569 213 2275 61 
Q 1981 -91 1556 -91 
Q 1019 -91 701 211 
Q 384 513 384 1019 
Q 384 1609 779 1909 
Q 1175 2209 1959 2209 
L 2766 2209 
L 2766 2266 
Q 2766 2663 2505 2880 
Q 2244 3097 1772 3097 
Q 1472 3097 1187 3025 
Q 903 2953 641 2809 
L 641 3341 
Q 956 3463 1253 3523 
Q 1550 3584 1831 3584 
Q 2591 3584 2966 3190 
Q 3341 2797 3341 1997 
z
" id="DejaVuSans-61" transform="scale(0.015625)"/>
      <path d="M 191 3500 
L 800 3500 
L 1894 563 
L 2988 3500 
L 3597 3500 
L 2284 0 
L 1503 0 
L 191 3500 
z
" id="DejaVuSans-76" transform="scale(0.015625)"/>
      <path d="M 3597 1894 
L 3597 1613 
L 953 1613 
Q 991 1019 1311 708 
Q 1631 397 2203 397 
Q 2534 397 2845 478 
Q 3156 559 3463 722 
L 3463 178 
Q 3153 47 2828 -22 
Q 2503 -91 2169 -91 
Q 1331 -91 842 396 
Q 353 884 353 1716 
Q 353 2575 817 3079 
Q 1281 3584 2069 3584 
Q 2775 3584 3186 3129 
Q 3597 2675 3597 1894 
z
M 3022 2063 
Q 3016 2534 2758 2815 
Q 2500 3097 2075 3097 
Q 1594 3097 1305 2825 
Q 1016 2553 972 2059 
L 3022 2063 
z
" id="DejaVuSans-65" transform="scale(0.015625)"/>
      <path d="M 2631 2963 
Q 2534 3019 2420 3045 
Q 2306 3072 2169 3072 
Q 1681 3072 1420 2755 
Q 1159 2438 1159 1844 
L 1159 0 
L 581 0 
L 581 3500 
L 1159 3500 
L 1159 2956 
Q 1341 3275 1631 3429 
Q 1922 3584 2338 3584 
Q 2397 3584 2469 3576 
Q 2541 3569 2628 3553 
L 2631 2963 
z
" id="DejaVuSans-72" transform="scale(0.015625)"/>
      <path d="M 2906 1791 
Q 2906 2416 2648 2759 
Q 2391 3103 1925 3103 
Q 1463 3103 1205 2759 
Q 947 2416 947 1791 
Q 947 1169 1205 825 
Q 1463 481 1925 481 
Q 2391 481 2648 825 
Q 2906 1169 2906 1791 
z
M 3481 434 
Q 3481 -459 3084 -895 
Q 2688 -1331 1869 -1331 
Q 1566 -1331 1297 -1286 
Q 1028 -1241 775 -1147 
L 775 -588 
Q 1028 -725 1275 -790 
Q 1522 -856 1778 -856 
Q 2344 -856 2625 -561 
Q 2906 -266 2906 331 
L 2906 616 
Q 2728 306 2450 153 
Q 2172 0 1784 0 
Q 1141 0 747 490 
Q 353 981 353 1791 
Q 353 2603 747 3093 
Q 1141 3584 1784 3584 
Q 2172 3584 2450 3431 
Q 2728 3278 2906 2969 
L 2906 3500 
L 3481 3500 
L 3481 434 
z
" id="DejaVuSans-67" transform="scale(0.015625)"/>
      <path d="M 3513 2113 
L 3513 0 
L 2938 0 
L 2938 2094 
Q 2938 2591 2744 2837 
Q 2550 3084 2163 3084 
Q 1697 3084 1428 2787 
Q 1159 2491 1159 1978 
L 1159 0 
L 581 0 
L 581 4863 
L 1159 4863 
L 1159 2956 
Q 1366 3272 1645 3428 
Q 1925 3584 2291 3584 
Q 2894 3584 3203 3211 
Q 3513 2838 3513 2113 
z
" id="DejaVuSans-68" transform="scale(0.015625)"/>
      <path d="M 1959 3097 
Q 1497 3097 1228 2736 
Q 959 2375 959 1747 
Q 959 1119 1226 758 
Q 1494 397 1959 397 
Q 2419 397 2687 759 
Q 2956 1122 2956 1747 
Q 2956 2369 2687 2733 
Q 2419 3097 1959 3097 
z
M 1959 3584 
Q 2709 3584 3137 3096 
Q 3566 2609 3566 1747 
Q 3566 888 3137 398 
Q 2709 -91 1959 -91 
Q 1206 -91 779 398 
Q 353 888 353 1747 
Q 353 2609 779 3096 
Q 1206 3584 1959 3584 
z
" id="DejaVuSans-6f" transform="scale(0.015625)"/>
      <path d="M 544 1381 
L 544 3500 
L 1119 3500 
L 1119 1403 
Q 1119 906 1312 657 
Q 1506 409 1894 409 
Q 2359 409 2629 706 
Q 2900 1003 2900 1516 
L 2900 3500 
L 3475 3500 
L 3475 0 
L 2900 0 
L 2900 538 
Q 2691 219 2414 64 
Q 2138 -91 1772 -91 
Q 1169 -91 856 284 
Q 544 659 544 1381 
z
M 1991 3584 
L 1991 3584 
z
" id="DejaVuSans-75" transform="scale(0.015625)"/>
      <path d="M 2834 3397 
L 2834 2853 
Q 2591 2978 2328 3040 
Q 2066 3103 1784 3103 
Q 1356 3103 1142 2972 
Q 928 2841 928 2578 
Q 928 2378 1081 2264 
Q 1234 2150 1697 2047 
L 1894 2003 
Q 2506 1872 2764 1633 
Q 3022 1394 3022 966 
Q 3022 478 2636 193 
Q 2250 -91 1575 -91 
Q 1294 -91 989 -36 
Q 684 19 347 128 
L 347 722 
Q 666 556 975 473 
Q 1284 391 1588 391 
Q 1994 391 2212 530 
Q 2431 669 2431 922 
Q 2431 1156 2273 1281 
Q 2116 1406 1581 1522 
L 1381 1569 
Q 847 1681 609 1914 
Q 372 2147 372 2553 
Q 372 3047 722 3315 
Q 1072 3584 1716 3584 
Q 2034 3584 2315 3537 
Q 2597 3491 2834 3397 
z
" id="DejaVuSans-73" transform="scale(0.015625)"/>
      <path d="M 1159 525 
L 1159 -1331 
L 581 -1331 
L 581 3500 
L 1159 3500 
L 1159 2969 
Q 1341 3281 1617 3432 
Q 1894 3584 2278 3584 
Q 2916 3584 3314 3078 
Q 3713 2572 3713 1747 
Q 3713 922 3314 415 
Q 2916 -91 2278 -91 
Q 1894 -91 1617 61 
Q 1341 213 1159 525 
z
M 3116 1747 
Q 3116 2381 2855 2742 
Q 2594 3103 2138 3103 
Q 1681 3103 1420 2742 
Q 1159 2381 1159 1747 
Q 1159 1113 1420 752 
Q 1681 391 2138 391 
Q 2594 391 2855 752 
Q 3116 1113 3116 1747 
z
" id="DejaVuSans-70" transform="scale(0.015625)"/>
      <path d="M 603 3500 
L 1178 3500 
L 1178 0 
L 603 0 
L 603 3500 
z
M 603 4863 
L 1178 4863 
L 1178 4134 
L 603 4134 
L 603 4863 
z
" id="DejaVuSans-69" transform="scale(0.015625)"/>
      <path d="M 3122 3366 
L 3122 2828 
Q 2878 2963 2633 3030 
Q 2388 3097 2138 3097 
Q 1578 3097 1268 2742 
Q 959 2388 959 1747 
Q 959 1106 1268 751 
Q 1578 397 2138 397 
Q 2388 397 2633 464 
Q 2878 531 3122 666 
L 3122 134 
Q 2881 22 2623 -34 
Q 2366 -91 2075 -91 
Q 1284 -91 818 406 
Q 353 903 353 1747 
Q 353 2603 823 3093 
Q 1294 3584 2113 3584 
Q 2378 3584 2631 3529 
Q 2884 3475 3122 3366 
z
" id="DejaVuSans-63" transform="scale(0.015625)"/>
      <path d="M 3513 2113 
L 3513 0 
L 2938 0 
L 2938 2094 
Q 2938 2591 2744 2837 
Q 2550 3084 2163 3084 
Q 1697 3084 1428 2787 
Q 1159 2491 1159 1978 
L 1159 0 
L 581 0 
L 581 3500 
L 1159 3500 
L 1159 2956 
Q 1366 3272 1645 3428 
Q 1925 3584 2291 3584 
Q 2894 3584 3203 3211 
Q 3513 2838 3513 2113 
z
" id="DejaVuSans-6e" transform="scale(0.015625)"/>
      <path d="M 2906 2969 
L 2906 4863 
L 3481 4863 
L 3481 0 
L 2906 0 
L 2906 525 
Q 2725 213 2448 61 
Q 2172 -91 1784 -91 
Q 1150 -91 751 415 
Q 353 922 353 1747 
Q 353 2572 751 3078 
Q 1150 3584 1784 3584 
Q 2172 3584 2448 3432 
Q 2725 3281 2906 2969 
z
M 947 1747 
Q 947 1113 1208 752 
Q 1469 391 1925 391 
Q 2381 391 2643 752 
Q 2906 1113 2906 1747 
Q 2906 2381 2643 2742 
Q 2381 3103 1925 3103 
Q 1469 3103 1208 2742 
Q 947 2381 947 1747 
z
" id="DejaVuSans-64" transform="scale(0.015625)"/>
      <path d="M 269 3500 
L 844 3500 
L 1563 769 
L 2278 3500 
L 2956 3500 
L 3675 769 
L 4391 3500 
L 4966 3500 
L 4050 0 
L 3372 0 
L 2619 2869 
L 1863 0 
L 1184 0 
L 269 3500 
z
" id="DejaVuSans-77" transform="scale(0.015625)"/>
      <path d="M 581 4863 
L 1159 4863 
L 1159 1991 
L 2875 3500 
L 3609 3500 
L 1753 1863 
L 3688 0 
L 2938 0 
L 1159 1709 
L 1159 0 
L 581 0 
L 581 4863 
z
" id="DejaVuSans-6b" transform="scale(0.015625)"/>
      <path d="M 603 4863 
L 1178 4863 
L 1178 0 
L 603 0 
L 603 4863 
z
" id="DejaVuSans-6c" transform="scale(0.015625)"/>
      <path d="M 2059 -325 
Q 1816 -950 1584 -1140 
Q 1353 -1331 966 -1331 
L 506 -1331 
L 506 -850 
L 844 -850 
Q 1081 -850 1212 -737 
Q 1344 -625 1503 -206 
L 1606 56 
L 191 3500 
L 800 3500 
L 1894 763 
L 2988 3500 
L 3597 3500 
L 2059 -325 
z
" id="DejaVuSans-79" transform="scale(0.015625)"/>
      <path d="M 1984 4856 
Q 1566 4138 1362 3434 
Q 1159 2731 1159 2009 
Q 1159 1288 1364 580 
Q 1569 -128 1984 -844 
L 1484 -844 
Q 1016 -109 783 600 
Q 550 1309 550 2009 
Q 550 2706 781 3412 
Q 1013 4119 1484 4856 
L 1984 4856 
z
" id="DejaVuSans-28" transform="scale(0.015625)"/>
      <path d="M 313 2009 
L 1997 2009 
L 1997 1497 
L 313 1497 
L 313 2009 
z
" id="DejaVuSans-2d" transform="scale(0.015625)"/>
      <path d="M 3328 2828 
Q 3544 3216 3844 3400 
Q 4144 3584 4550 3584 
Q 5097 3584 5394 3201 
Q 5691 2819 5691 2113 
L 5691 0 
L 5113 0 
L 5113 2094 
Q 5113 2597 4934 2840 
Q 4756 3084 4391 3084 
Q 3944 3084 3684 2787 
Q 3425 2491 3425 1978 
L 3425 0 
L 2847 0 
L 2847 2094 
Q 2847 2600 2669 2842 
Q 2491 3084 2119 3084 
Q 1678 3084 1418 2786 
Q 1159 2488 1159 1978 
L 1159 0 
L 581 0 
L 581 3500 
L 1159 3500 
L 1159 2956 
Q 1356 3278 1631 3431 
Q 1906 3584 2284 3584 
Q 2666 3584 2933 3390 
Q 3200 3197 3328 2828 
z
" id="DejaVuSans-6d" transform="scale(0.015625)"/>
      <path d="M 1172 4494 
L 1172 3500 
L 2356 3500 
L 2356 3053 
L 1172 3053 
L 1172 1153 
Q 1172 725 1289 603 
Q 1406 481 1766 481 
L 2356 481 
L 2356 0 
L 1766 0 
Q 1100 0 847 248 
Q 594 497 594 1153 
L 594 3053 
L 172 3053 
L 172 3500 
L 594 3500 
L 594 4494 
L 1172 4494 
z
" id="DejaVuSans-74" transform="scale(0.015625)"/>
      <path d="M 513 4856 
L 1013 4856 
Q 1481 4119 1714 3412 
Q 1947 2706 1947 2009 
Q 1947 1309 1714 600 
Q 1481 -109 1013 -844 
L 513 -844 
Q 928 -128 1133 580 
Q 1338 1288 1338 2009 
Q 1338 2731 1133 3434 
Q 928 4138 513 4856 
z
" id="DejaVuSans-29" transform="scale(0.015625)"/>
      <path d="M 750 794 
L 1409 794 
L 1409 256 
L 897 -744 
L 494 -744 
L 750 256 
L 750 794 
z
" id="DejaVuSans-2c" transform="scale(0.015625)"/>
      <path d="M 3513 3500 
L 2247 1797 
L 3578 0 
L 2900 0 
L 1881 1375 
L 863 0 
L 184 0 
L 1544 1831 
L 300 3500 
L 978 3500 
L 1906 2253 
L 2834 3500 
L 3513 3500 
z
" id="DejaVuSans-78" transform="scale(0.015625)"/>
      <path d="M 628 4666 
L 1259 4666 
L 1259 325 
Q 1259 -519 939 -900 
Q 619 -1281 -91 -1281 
L -331 -1281 
L -331 -750 
L -134 -750 
Q 284 -750 456 -515 
Q 628 -281 628 325 
L 628 4666 
z
" id="DejaVuSans-4a" transform="scale(0.015625)"/>
     </defs>
     <use xlink:href="#DejaVuSans-55"/>
     <use x="73.193359" xlink:href="#DejaVuSans-4b"/>
     <use x="138.769531" xlink:href="#DejaVuSans-20"/>
     <use x="170.556641" xlink:href="#DejaVuSans-61"/>
     <use x="231.835938" xlink:href="#DejaVuSans-76"/>
     <use x="291.015625" xlink:href="#DejaVuSans-65"/>
     <use x="352.539062" xlink:href="#DejaVuSans-72"/>
     <use x="393.652344" xlink:href="#DejaVuSans-61"/>
     <use x="454.931641" xlink:href="#DejaVuSans-67"/>
     <use x="518.408203" xlink:href="#DejaVuSans-65"/>
     <use x="579.931641" xlink:href="#DejaVuSans-20"/>
     <use x="611.71875" xlink:href="#DejaVuSans-68"/>
     <use x="675.097656" xlink:href="#DejaVuSans-6f"/>
     <use x="736.279297" xlink:href="#DejaVuSans-75"/>
     <use x="799.658203" xlink:href="#DejaVuSans-73"/>
     <use x="851.757812" xlink:href="#DejaVuSans-65"/>
     <use x="913.28125" xlink:href="#DejaVuSans-20"/>
     <use x="945.068359" xlink:href="#DejaVuSans-70"/>
     <use x="1008.544922" xlink:href="#DejaVuSans-72"/>
     <use x="1049.658203" xlink:href="#DejaVuSans-69"/>
     <use x="1077.441406" xlink:href="#DejaVuSans-63"/>
     <use x="1132.421875" xlink:href="#DejaVuSans-65"/>
     <use x="1193.945312" xlink:href="#DejaVuSans-73"/>
     <use x="1246.044922" xlink:href="#DejaVuSans-20"/>
     <use x="1277.832031" xlink:href="#DejaVuSans-61"/>
     <use x="1339.111328" xlink:href="#DejaVuSans-6e"/>
     <use x="1402.490234" xlink:href="#DejaVuSans-64"/>
     <use x="1465.966797" xlink:href="#DejaVuSans-20"/>
     <use x="1497.753906" xlink:href="#DejaVuSans-77"/>
     <use x="1579.541016" xlink:href="#DejaVuSans-65"/>
     <use x="1641.064453" xlink:href="#DejaVuSans-65"/>
     <use x="1702.587891" xlink:href="#DejaVuSans-6b"/>
     <use x="1760.498047" xlink:href="#DejaVuSans-6c"/>
     <use x="1788.28125" xlink:href="#DejaVuSans-79"/>
     <use x="1847.460938" xlink:href="#DejaVuSans-20"/>
     <use x="1879.248047" xlink:href="#DejaVuSans-65"/>
     <use x="1940.771484" xlink:href="#DejaVuSans-61"/>
     <use x="2002.050781" xlink:href="#DejaVuSans-72"/>
     <use x="2041.414062" xlink:href="#DejaVuSans-6e"/>
     <use x="2104.792969" xlink:href="#DejaVuSans-69"/>
     <use x="2132.576172" xlink:href="#DejaVuSans-6e"/>
     <use x="2195.955078" xlink:href="#DejaVuSans-67"/>
     <use x="2259.431641" xlink:href="#DejaVuSans-73"/>
     <use x="2311.53125" xlink:href="#DejaVuSans-20"/>
     <use x="2343.318359" xlink:href="#DejaVuSans-28"/>
     <use x="2382.332031" xlink:href="#DejaVuSans-31"/>
     <use x="2445.955078" xlink:href="#DejaVuSans-32"/>
     <use x="2509.578125" xlink:href="#DejaVuSans-2d"/>
     <use x="2545.662109" xlink:href="#DejaVuSans-6d"/>
     <use x="2643.074219" xlink:href="#DejaVuSans-6f"/>
     <use x="2704.255859" xlink:href="#DejaVuSans-6e"/>
     <use x="2767.634766" xlink:href="#DejaVuSans-74"/>
     <use x="2806.84375" xlink:href="#DejaVuSans-68"/>
     <use x="2870.222656" xlink:href="#DejaVuSans-20"/>
     <use x="2902.009766" xlink:href="#DejaVuSans-72"/>
     <use x="2940.873047" xlink:href="#DejaVuSans-6f"/>
     <use x="3002.054688" xlink:href="#DejaVuSans-6c"/>
     <use x="3029.837891" xlink:href="#DejaVuSans-6c"/>
     <use x="3057.621094" xlink:href="#DejaVuSans-69"/>
     <use x="3085.404297" xlink:href="#DejaVuSans-6e"/>
     <use x="3148.783203" xlink:href="#DejaVuSans-67"/>
     <use x="3212.259766" xlink:href="#DejaVuSans-20"/>
     <use x="3244.046875" xlink:href="#DejaVuSans-61"/>
     <use x="3305.326172" xlink:href="#DejaVuSans-76"/>
     <use x="3364.505859" xlink:href="#DejaVuSans-65"/>
     <use x="3426.029297" xlink:href="#DejaVuSans-72"/>
     <use x="3467.142578" xlink:href="#DejaVuSans-61"/>
     <use x="3528.421875" xlink:href="#DejaVuSans-67"/>
     <use x="3591.898438" xlink:href="#DejaVuSans-65"/>
     <use x="3653.421875" xlink:href="#DejaVuSans-29"/>
     <use x="3692.435547" xlink:href="#DejaVuSans-2c"/>
     <use x="3724.222656" xlink:href="#DejaVuSans-20"/>
     <use x="3756.009766" xlink:href="#DejaVuSans-69"/>
     <use x="3783.792969" xlink:href="#DejaVuSans-6e"/>
     <use x="3847.171875" xlink:href="#DejaVuSans-64"/>
     <use x="3910.648438" xlink:href="#DejaVuSans-65"/>
     <use x="3970.421875" xlink:href="#DejaVuSans-78"/>
     <use x="4026.476562" xlink:href="#DejaVuSans-65"/>
     <use x="4088" xlink:href="#DejaVuSans-64"/>
     <use x="4151.476562" xlink:href="#DejaVuSans-20"/>
     <use x="4183.263672" xlink:href="#DejaVuSans-74"/>
     <use x="4222.472656" xlink:href="#DejaVuSans-6f"/>
     <use x="4283.654297" xlink:href="#DejaVuSans-20"/>
     <use x="4315.441406" xlink:href="#DejaVuSans-4a"/>
     <use x="4344.933594" xlink:href="#DejaVuSans-61"/>
     <use x="4406.212891" xlink:href="#DejaVuSans-6e"/>
     <use x="4469.591797" xlink:href="#DejaVuSans-20"/>
     <use x="4501.378906" xlink:href="#DejaVuSans-31"/>
     <use x="4565.001953" xlink:href="#DejaVuSans-39"/>
     <use x="4628.625" xlink:href="#DejaVuSans-37"/>
     <use x="4692.248047" xlink:href="#DejaVuSans-30"/>
    </g>
   </g>
   <g id="legend_1">
    <g id="patch_7">
     <path d="M 79 106.47625 
L 236.621875 106.47625 
Q 238.621875 106.47625 238.621875 104.47625 
L 238.621875 76.12 
Q 238.621875 74.12 236.621875 74.12 
L 79 74.12 
Q 77 74.12 77 76.12 
L 77 104.47625 
Q 77 106.47625 79 106.47625 
z
" style="fill:#ffffff;opacity:0.8;stroke:#cccccc;stroke-linejoin:miter;"/>
    </g>
    <g id="line2d_27">
     <path d="M 81 82.218437 
L 101 82.218437 
" style="fill:none;stroke:#1f77b4;stroke-linecap:square;stroke-width:1.5;"/>
    </g>
    <g id="line2d_28"/>
    <g id="text_26">
     <!-- Average weekly earnings -->
     <g transform="translate(109 85.718437)scale(0.1 -0.1)">
      <defs>
       <path d="M 2188 4044 
L 1331 1722 
L 3047 1722 
L 2188 4044 
z
M 1831 4666 
L 2547 4666 
L 4325 0 
L 3669 0 
L 3244 1197 
L 1141 1197 
L 716 0 
L 50 0 
L 1831 4666 
z
" id="DejaVuSans-41" transform="scale(0.015625)"/>
      </defs>
      <use xlink:href="#DejaVuSans-41"/>
      <use x="62.533203" xlink:href="#DejaVuSans-76"/>
      <use x="121.712891" xlink:href="#DejaVuSans-65"/>
      <use x="183.236328" xlink:href="#DejaVuSans-72"/>
      <use x="224.349609" xlink:href="#DejaVuSans-61"/>
      <use x="285.628906" xlink:href="#DejaVuSans-67"/>
      <use x="349.105469" xlink:href="#DejaVuSans-65"/>
      <use x="410.628906" xlink:href="#DejaVuSans-20"/>
      <use x="442.416016" xlink:href="#DejaVuSans-77"/>
      <use x="524.203125" xlink:href="#DejaVuSans-65"/>
      <use x="585.726562" xlink:href="#DejaVuSans-65"/>
      <use x="647.25" xlink:href="#DejaVuSans-6b"/>
      <use x="705.160156" xlink:href="#DejaVuSans-6c"/>
      <use x="732.943359" xlink:href="#DejaVuSans-79"/>
      <use x="792.123047" xlink:href="#DejaVuSans-20"/>
      <use x="823.910156" xlink:href="#DejaVuSans-65"/>
      <use x="885.433594" xlink:href="#DejaVuSans-61"/>
      <use x="946.712891" xlink:href="#DejaVuSans-72"/>
      <use x="986.076172" xlink:href="#DejaVuSans-6e"/>
      <use x="1049.455078" xlink:href="#DejaVuSans-69"/>
      <use x="1077.238281" xlink:href="#DejaVuSans-6e"/>
      <use x="1140.617188" xlink:href="#DejaVuSans-67"/>
      <use x="1204.09375" xlink:href="#DejaVuSans-73"/>
     </g>
    </g>
    <g id="line2d_29">
     <path d="M 81 96.896563 
L 101 96.896563 
" style="fill:none;stroke:#ff7f0e;stroke-linecap:square;stroke-width:1.5;"/>
    </g>
    <g id="line2d_30"/>
    <g id="text_27">
     <!-- Average house prices -->
     <g transform="translate(109 100.396563)scale(0.1 -0.1)">
      <use xlink:href="#DejaVuSans-41"/>
      <use x="62.533203" xlink:href="#DejaVuSans-76"/>
      <use x="121.712891" xlink:href="#DejaVuSans-65"/>
      <use x="183.236328" xlink:href="#DejaVuSans-72"/>
      <use x="224.349609" xlink:href="#DejaVuSans-61"/>
      <use x="285.628906" xlink:href="#DejaVuSans-67"/>
      <use x="349.105469" xlink:href="#DejaVuSans-65"/>
      <use x="410.628906" xlink:href="#DejaVuSans-20"/>
      <use x="442.416016" xlink:href="#DejaVuSans-68"/>
      <use x="505.794922" xlink:href="#DejaVuSans-6f"/>
      <use x="566.976562" xlink:href="#DejaVuSans-75"/>
      <use x="630.355469" xlink:href="#DejaVuSans-73"/>
      <use x="682.455078" xlink:href="#DejaVuSans-65"/>
      <use x="743.978516" xlink:href="#DejaVuSans-20"/>
      <use x="775.765625" xlink:href="#DejaVuSans-70"/>
      <use x="839.242188" xlink:href="#DejaVuSans-72"/>
      <use x="880.355469" xlink:href="#DejaVuSans-69"/>
      <use x="908.138672" xlink:href="#DejaVuSans-63"/>
      <use x="963.119141" xlink:href="#DejaVuSans-65"/>
      <use x="1024.642578" xlink:href="#DejaVuSans-73"/>
     </g>
    </g>
   </g>
  </g>
 </g>
 <defs>
  <clipPath id="pe8391ca937">
   <rect height="434.88" width="446.4" x="72" y="69.12"/>
  </clipPath>
 </defs>
</svg>
